<svg id="Calque_1" data-name="Calque 1" xmlns="http://www.w3.org/2000/svg" viewBox="0 0 316.82 133.78"><defs><style>.cls-1{fill:#fff;stroke:#d9d9d9;stroke-miterlimit:10;}.cls-2{fill:#d9d9d9;}</style></defs><ellipse class="cls-1" cx="143.95" cy="77.13" rx="57.49" ry="56.15"/><polygon class="cls-2" points="153.27 21.64 139.31 13.77 139.31 29.52 153.27 21.64"/><polygon class="cls-2" points="205.96 97.81 191.4 91.05 192.69 106.75 205.96 97.81"/><polygon class="cls-2" points="101.97 102 88.72 93.04 87.4 108.73 101.97 102"/><path d="M3,102a1.35,1.35,0,0,0,1.51,1c.92,0,1.29-.4,1.29-.92s-.29-.85-1.48-1.11c-1.4-.31-1.89-.75-1.89-1.52S3.08,98,4.41,98s2,.75,2.07,1.47h-.8c-.11-.49-.44-.89-1.3-.89s-1.13.3-1.13.82.33.72,1.37,1c1.7.37,2,1,2,1.68,0,.88-.71,1.57-2.16,1.57S2.32,102.83,2.2,102Z" transform="translate(-2.2 -1.78)"/><path d="M11.06,102.35c0,.39,0,.92,0,1.16h-.73c0-.11,0-.35,0-.6A1.3,1.3,0,0,1,9,103.6a1.3,1.3,0,0,1-1.43-1.45V99.54h.75V102c0,.52.17,1,.89,1s1.1-.4,1.1-1.39V99.54h.75Z" transform="translate(-2.2 -1.78)"/><path d="M12.34,97.76h.75v.86h-.75Zm0,1.78h.75v4h-.75Z" transform="translate(-2.2 -1.78)"/><path d="M14.66,99.54c.59,1.62,1,2.83,1.14,3.33h0c.11-.44.57-1.63,1.22-3.33h.76l-1.59,4h-.83l-1.51-4Z" transform="translate(-2.2 -1.78)"/><path d="M18.55,97.76h.75v.86h-.75Zm0,1.78h.75v4h-.75Z" transform="translate(-2.2 -1.78)"/><path d="M28,100.05l-1.52,2c-.71,1-1.21,1.48-2.3,1.48a1.52,1.52,0,0,1-1.69-1.43c0-.71.43-1.2,1.61-1.76.76-.39,1.19-.64,1.19-1.15a.76.76,0,0,0-1.51,0c0,.34.27.64.71,1l3.57,3.22h-1l-3.18-2.88a1.79,1.79,0,0,1-.8-1.33A1.35,1.35,0,0,1,24.58,98,1.31,1.31,0,0,1,26,99.23c0,.61-.43,1-1.49,1.52s-1.23.87-1.23,1.32a.94.94,0,0,0,1,.91c.66,0,1-.25,1.78-1.29l1.18-1.64Z" transform="translate(-2.2 -1.78)"/><path d="M32.2,101.87l-.64,1.64h-.79l2.12-5.45h1l2.2,5.45h-.84l-.66-1.64Zm2.16-.62c-.56-1.43-.87-2.19-1-2.6h0c-.15.46-.49,1.38-1,2.6Z" transform="translate(-2.2 -1.78)"/><path d="M40.47,97.76v5.75h-.71a4.63,4.63,0,0,1,0-.57,1.37,1.37,0,0,1-1.36.66,1.81,1.81,0,0,1-1.8-2,1.93,1.93,0,0,1,1.94-2.12c.76,0,1.1.29,1.22.51V97.76Zm-3.13,3.78c0,1,.5,1.48,1.18,1.48,1,0,1.23-.69,1.23-1.56s-.2-1.44-1.18-1.44C37.81,100,37.34,100.58,37.34,101.54Z" transform="translate(-2.2 -1.78)"/><path d="M44.91,102.64a6.67,6.67,0,0,0,.06.87h-.71a1.78,1.78,0,0,1-.07-.52,1.4,1.4,0,0,1-1.34.61c-1,0-1.45-.61-1.45-1.21,0-.89.76-1.29,2-1.29h.74v-.34c0-.35-.12-.78-.93-.78s-.85.33-.92.64H41.6c.06-.55.43-1.18,1.67-1.18,1.06,0,1.64.4,1.64,1.3Zm-.73-1.07h-.7c-.86,0-1.32.22-1.32.78s.31.71.84.71c1,0,1.18-.64,1.18-1.36Z" transform="translate(-2.2 -1.78)"/><path d="M47,103v2h-.74v-4.56c0-.33,0-.66,0-1h.73c0,.13,0,.37,0,.62a1.53,1.53,0,0,1,1.42-.72,1.77,1.77,0,0,1,1.72,2,1.92,1.92,0,0,1-1.88,2.18A1.36,1.36,0,0,1,47,103Zm2.37-1.57c0-.84-.41-1.42-1.15-1.42-.9,0-1.25.52-1.25,1.48s.29,1.51,1.19,1.51S49.32,102.42,49.32,101.45Z" transform="translate(-2.2 -1.78)"/><path d="M50.51,99.54h.75V98.37H52v1.17h1v.56H52v2.32c0,.39.11.59.5.59a1.76,1.76,0,0,0,.38,0v.52a2.36,2.36,0,0,1-.65.07c-.67,0-1-.32-1-1V100.1h-.75Z" transform="translate(-2.2 -1.78)"/><path d="M57,102.64a6.67,6.67,0,0,0,.06.87h-.71a1.78,1.78,0,0,1-.07-.52,1.4,1.4,0,0,1-1.34.61c-1,0-1.45-.61-1.45-1.21,0-.89.76-1.29,2-1.29h.74v-.34c0-.35-.12-.78-.93-.78s-.85.33-.93.64h-.72c.06-.55.43-1.18,1.67-1.18,1.06,0,1.64.4,1.64,1.3Zm-.73-1.07h-.7c-.86,0-1.32.22-1.32.78s.31.71.84.71c1,0,1.18-.64,1.18-1.36Z" transform="translate(-2.2 -1.78)"/><path d="M57.67,99.54h.75V98.37h.75v1.17h.95v.56h-.95v2.32c0,.39.1.59.49.59a1.76,1.76,0,0,0,.38,0v.52a2.32,2.32,0,0,1-.65.07c-.67,0-1-.32-1-1V100.1h-.75Z" transform="translate(-2.2 -1.78)"/><path d="M60.92,97.76h.74v.86h-.74Zm0,1.78h.74v4h-.74Z" transform="translate(-2.2 -1.78)"/><path d="M66.66,101.51a2,2,0,0,1-2,2.09,1.92,1.92,0,0,1-2-2.07,2,2,0,0,1,2-2.09A1.92,1.92,0,0,1,66.66,101.51Zm-3.26,0c0,.87.47,1.51,1.25,1.51s1.24-.6,1.24-1.51-.44-1.5-1.26-1.5S63.4,100.62,63.4,101.52Z" transform="translate(-2.2 -1.78)"/><path d="M67.64,100.54c0-.35,0-.69,0-1h.72a4.64,4.64,0,0,1,0,.65,1.39,1.39,0,0,1,1.37-.75A1.35,1.35,0,0,1,71.19,101v2.56h-.75V101c0-.6-.25-1-.91-1-.82,0-1.15.57-1.15,1.37v2.1h-.74Z" transform="translate(-2.2 -1.78)"/><path d="M114.59,5.13v2.4h-.78V2.08h2.31c1.22,0,1.87.61,1.87,1.46a1.26,1.26,0,0,1-1,1.28c.49.12.91.45.91,1.4v.23A3.54,3.54,0,0,0,118,7.53h-.77a3.4,3.4,0,0,1-.1-1.17V6.24c0-.77-.24-1.11-1.3-1.11Zm0-.61h1.29c.9,0,1.3-.31,1.3-.92s-.41-.91-1.22-.91h-1.37Z" transform="translate(-2.2 -1.78)"/><path d="M119.61,5.67a1.22,1.22,0,0,0,1.18,1.38,1,1,0,0,0,1-.62h.76a1.74,1.74,0,0,1-1.82,1.19,1.86,1.86,0,0,1-1.92-2,1.91,1.91,0,0,1,2-2.12,1.75,1.75,0,0,1,1.85,1.88c0,.12,0,.22,0,.33Zm2.3-.49A1.07,1.07,0,0,0,120.8,4c-.76,0-1.09.48-1.17,1.17Z" transform="translate(-2.2 -1.78)"/><path d="M127.09,6.31a1.68,1.68,0,0,1-1.79,1.31,1.85,1.85,0,0,1-1.93-2.06,2,2,0,0,1,2-2.1,1.58,1.58,0,0,1,1.73,1.33h-.74a1,1,0,0,0-1-.75c-.76,0-1.2.6-1.2,1.5s.42,1.51,1.17,1.51a1,1,0,0,0,1-.74Z" transform="translate(-2.2 -1.78)"/><path d="M128.73,1.78V4.14a1.48,1.48,0,0,1,1.35-.68A1.36,1.36,0,0,1,131.54,5V7.53h-.74V5.11c0-.68-.31-1.05-.94-1.05-.78,0-1.13.47-1.13,1.3V7.53H128V1.78Z" transform="translate(-2.2 -1.78)"/><path d="M133.27,5.67c0,.8.44,1.38,1.18,1.38a1,1,0,0,0,1-.62h.75a1.72,1.72,0,0,1-1.81,1.19,1.86,1.86,0,0,1-1.92-2,1.91,1.91,0,0,1,2-2.12,1.75,1.75,0,0,1,1.86,1.88,1.77,1.77,0,0,1,0,.33Zm2.3-.49A1.07,1.07,0,0,0,134.46,4c-.76,0-1.09.48-1.17,1.17Z" transform="translate(-2.2 -1.78)"/><path d="M137.29,4.64c0-.56,0-.87,0-1.08H138c0,.11,0,.42,0,.81a1.54,1.54,0,0,1,1.46-.91v.69A1.31,1.31,0,0,0,138,5.6V7.53h-.75Z" transform="translate(-2.2 -1.78)"/><path d="M143.64,6.31a1.68,1.68,0,0,1-1.79,1.31,1.85,1.85,0,0,1-1.92-2.06,2,2,0,0,1,2-2.1,1.56,1.56,0,0,1,1.73,1.33h-.74a.94.94,0,0,0-1-.75c-.76,0-1.19.6-1.19,1.5s.42,1.51,1.17,1.51a1,1,0,0,0,1-.74Z" transform="translate(-2.2 -1.78)"/><path d="M145.29,1.78V4.14a1.47,1.47,0,0,1,1.35-.68A1.36,1.36,0,0,1,148.09,5V7.53h-.74V5.11c0-.68-.31-1.05-.94-1.05-.78,0-1.12.47-1.12,1.3V7.53h-.75V1.78Z" transform="translate(-2.2 -1.78)"/><path d="M149.82,5.67A1.22,1.22,0,0,0,151,7.05a1,1,0,0,0,1-.62h.76A1.74,1.74,0,0,1,151,7.62a1.86,1.86,0,0,1-1.92-2,1.91,1.91,0,0,1,2-2.12,1.75,1.75,0,0,1,1.85,1.88c0,.12,0,.22,0,.33Zm2.3-.49A1.07,1.07,0,0,0,151,4c-.77,0-1.1.48-1.18,1.17Z" transform="translate(-2.2 -1.78)"/><path d="M161.26,4.07l-1.52,2.05c-.71,1-1.21,1.49-2.3,1.49a1.53,1.53,0,0,1-1.69-1.44c0-.71.43-1.2,1.61-1.76.76-.39,1.19-.64,1.19-1.15a.71.71,0,0,0-.74-.73.71.71,0,0,0-.78.76c0,.34.28.64.72,1l3.57,3.22h-1l-3.18-2.88a1.81,1.81,0,0,1-.81-1.33A1.35,1.35,0,0,1,157.81,2a1.31,1.31,0,0,1,1.44,1.25c0,.61-.43,1-1.49,1.52s-1.23.87-1.23,1.33a.93.93,0,0,0,1,.9c.66,0,1-.25,1.78-1.29l1.18-1.64Z" transform="translate(-2.2 -1.78)"/><path d="M165.43,5.89l-.64,1.64H164l2.12-5.45h1l2.2,5.45h-.84l-.66-1.64Zm2.16-.62c-.56-1.43-.87-2.19-1-2.6h0c-.15.46-.49,1.38-1,2.6Z" transform="translate(-2.2 -1.78)"/><path d="M173.47,6.37c0,.39,0,.92,0,1.16h-.73a4.33,4.33,0,0,1,0-.6A1.49,1.49,0,0,1,170,6.17V3.56h.74V6c0,.52.18,1,.9,1s1.1-.4,1.1-1.39V3.56h.75Z" transform="translate(-2.2 -1.78)"/><path d="M178.36,1.78V6.41c0,.37,0,.73,0,1.12h-.72a4.63,4.63,0,0,1,0-.57,1.37,1.37,0,0,1-1.36.66,1.81,1.81,0,0,1-1.8-2,1.93,1.93,0,0,1,1.94-2.12c.76,0,1.1.29,1.22.51V1.78Zm-3.13,3.78c0,1,.5,1.48,1.18,1.48,1,0,1.23-.68,1.23-1.56s-.2-1.43-1.18-1.43C175.7,4.05,175.23,4.6,175.23,5.56Z" transform="translate(-2.2 -1.78)"/><path d="M179.63,1.78h.75v.86h-.75Zm0,1.78h.75v4h-.75Z" transform="translate(-2.2 -1.78)"/><path d="M181.14,3.56h.75V2.39h.75V3.56h1v.56h-1V6.44c0,.39.1.59.49.59a1.69,1.69,0,0,0,.38,0v.52a2.28,2.28,0,0,1-.65.07c-.67,0-1-.32-1-1V4.12h-.75Z" transform="translate(-2.2 -1.78)"/><path d="M220.1,101.4l-.64,1.64h-.78l2.11-5.45h1L224,103h-.84l-.66-1.64Zm2.17-.61c-.57-1.44-.88-2.2-1-2.61h0c-.15.46-.5,1.38-.95,2.61Z" transform="translate(-2.2 -1.78)"/><path d="M225.54,102.55v2h-.75V100c0-.33,0-.66,0-1h.73a4.88,4.88,0,0,1,0,.62A1.51,1.51,0,0,1,227,99a1.76,1.76,0,0,1,1.73,2,1.92,1.92,0,0,1-1.88,2.18A1.35,1.35,0,0,1,225.54,102.55Zm2.37-1.57c0-.84-.42-1.42-1.16-1.42s-1.25.52-1.25,1.49.29,1.5,1.19,1.5S227.91,102,227.91,101Z" transform="translate(-2.2 -1.78)"/><path d="M230.4,102.55v2h-.74V100c0-.33,0-.66,0-1h.73c0,.13,0,.37,0,.62a1.52,1.52,0,0,1,1.42-.71,1.76,1.76,0,0,1,1.72,2,1.92,1.92,0,0,1-1.88,2.18A1.36,1.36,0,0,1,230.4,102.55Zm2.37-1.57c0-.84-.41-1.42-1.15-1.42-.9,0-1.25.52-1.25,1.49s.29,1.5,1.19,1.5S232.77,102,232.77,101Z" transform="translate(-2.2 -1.78)"/><path d="M234.52,103V97.29h.75V103Z" transform="translate(-2.2 -1.78)"/><path d="M236.55,97.29h.74v.86h-.74Zm0,1.78h.74v4h-.74Z" transform="translate(-2.2 -1.78)"/><path d="M242,101.82a1.67,1.67,0,0,1-1.78,1.31,1.85,1.85,0,0,1-1.93-2,1.94,1.94,0,0,1,2-2.1A1.56,1.56,0,0,1,242,100.3h-.74a.94.94,0,0,0-1-.75c-.77,0-1.2.6-1.2,1.5s.42,1.51,1.17,1.51a1,1,0,0,0,1-.74Z" transform="translate(-2.2 -1.78)"/><path d="M246.14,102.17a5.24,5.24,0,0,0,.06.87h-.72a2.21,2.21,0,0,1-.07-.52,1.38,1.38,0,0,1-1.33.61c-1,0-1.46-.61-1.46-1.21,0-.89.76-1.29,2-1.29h.74v-.34c0-.35-.12-.78-.93-.78s-.84.33-.92.64h-.72c0-.55.42-1.18,1.66-1.17,1.06,0,1.65.39,1.65,1.3Zm-.73-1.07h-.7c-.86,0-1.33.22-1.33.78s.31.72.85.72c1,0,1.18-.65,1.18-1.37Z" transform="translate(-2.2 -1.78)"/><path d="M246.82,99.07h.74V97.9h.75v1.17h1v.56h-1V102c0,.39.1.59.49.59a1.69,1.69,0,0,0,.38,0V103a2.25,2.25,0,0,1-.64.07.85.85,0,0,1-1-1V99.63h-.74Z" transform="translate(-2.2 -1.78)"/><path d="M250.06,97.29h.75v.86h-.75Zm0,1.78h.75v4h-.75Z" transform="translate(-2.2 -1.78)"/><path d="M255.8,101.05a2,2,0,0,1-2,2.08,1.92,1.92,0,0,1-2-2.07,1.94,1.94,0,0,1,2-2.08A1.91,1.91,0,0,1,255.8,101.05Zm-3.26,0c0,.87.48,1.51,1.26,1.51s1.23-.6,1.23-1.5-.44-1.51-1.25-1.51S252.54,100.15,252.54,101.05Z" transform="translate(-2.2 -1.78)"/><path d="M256.78,100.07c0-.34,0-.69,0-1h.73c0,.12,0,.53,0,.65a1.36,1.36,0,0,1,1.36-.74,1.34,1.34,0,0,1,1.44,1.51V103h-.74v-2.47c0-.6-.26-1-.92-1-.81,0-1.14.57-1.14,1.37V103h-.75Z" transform="translate(-2.2 -1.78)"/><path d="M267.37,97.29v4.63c0,.37,0,.74,0,1.12h-.72a4.6,4.6,0,0,1,0-.56,1.38,1.38,0,0,1-1.36.65,1.8,1.8,0,0,1-1.79-2A1.92,1.92,0,0,1,265.4,99c.76,0,1.11.28,1.22.5V97.29Zm-3.13,3.78c0,1,.5,1.48,1.18,1.48,1,0,1.23-.68,1.23-1.55s-.2-1.44-1.17-1.44C264.71,99.56,264.24,100.11,264.24,101.07Z" transform="translate(-2.2 -1.78)"/><path d="M269.09,101.18c0,.81.45,1.38,1.18,1.38a1,1,0,0,0,1.05-.61h.75a1.74,1.74,0,0,1-1.82,1.18,1.85,1.85,0,0,1-1.91-2,1.9,1.9,0,0,1,2-2.12,1.74,1.74,0,0,1,1.85,1.87c0,.12,0,.22,0,.33Zm2.3-.48a1.06,1.06,0,0,0-1.1-1.18c-.76,0-1.1.48-1.17,1.18Z" transform="translate(-2.2 -1.78)"/><path d="M275.23,103V97.29H276V103Z" transform="translate(-2.2 -1.78)"/><path d="M280.43,102.17a5.24,5.24,0,0,0,.06.87h-.72a2.21,2.21,0,0,1-.07-.52,1.38,1.38,0,0,1-1.33.61c-1,0-1.46-.61-1.46-1.21,0-.89.76-1.29,2-1.29h.73v-.34c0-.35-.12-.78-.93-.78s-.84.33-.92.64h-.72c.05-.55.42-1.18,1.67-1.17,1,0,1.64.39,1.64,1.3Zm-.73-1.07H279c-.86,0-1.32.22-1.32.78s.3.72.84.72c1,0,1.18-.65,1.18-1.37Z" transform="translate(-2.2 -1.78)"/><path d="M284.81,100.64V103H284V97.59h2.32c1.22,0,1.87.61,1.87,1.46a1.26,1.26,0,0,1-1,1.28c.49.12.91.45.91,1.4V102a3.52,3.52,0,0,0,.08,1.08h-.77a3.4,3.4,0,0,1-.1-1.17v-.12c0-.77-.24-1.11-1.3-1.11Zm0-.61h1.29c.9,0,1.3-.31,1.3-.92s-.41-.91-1.22-.91h-1.37Z" transform="translate(-2.2 -1.78)"/><path d="M293.1,101.05a2,2,0,0,1-2,2.08,1.92,1.92,0,0,1-2-2.07,2,2,0,0,1,2-2.08A1.91,1.91,0,0,1,293.1,101.05Zm-3.26,0c0,.87.47,1.51,1.25,1.51s1.24-.6,1.24-1.5-.44-1.51-1.25-1.51S289.84,100.15,289.84,101.05Z" transform="translate(-2.2 -1.78)"/><path d="M297.29,102.17a5.24,5.24,0,0,0,.06.87h-.72a2.21,2.21,0,0,1-.07-.52,1.38,1.38,0,0,1-1.33.61c-1,0-1.46-.61-1.46-1.21,0-.89.76-1.29,2.05-1.29h.73v-.34c0-.35-.12-.78-.93-.78s-.84.33-.92.64H294c0-.55.42-1.18,1.67-1.17,1.05,0,1.64.39,1.64,1.3Zm-.73-1.07h-.7c-.86,0-1.32.22-1.32.78s.3.72.84.72c1,0,1.18-.65,1.18-1.37Z" transform="translate(-2.2 -1.78)"/><path d="M302.17,97.29v4.63c0,.37,0,.74,0,1.12h-.72c0-.11,0-.41,0-.56a1.38,1.38,0,0,1-1.36.65,1.8,1.8,0,0,1-1.79-2A1.92,1.92,0,0,1,300.2,99c.77,0,1.11.28,1.22.5V97.29ZM299,101.07c0,1,.5,1.48,1.18,1.48,1,0,1.23-.68,1.23-1.55s-.2-1.44-1.17-1.44C299.52,99.56,299,100.11,299,101.07Z" transform="translate(-2.2 -1.78)"/><path d="M303.45,100.09c0-.34,0-.7,0-1h.72c0,.12,0,.41,0,.61a1.34,1.34,0,0,1,1.26-.7,1.17,1.17,0,0,1,1.19.71A1.5,1.5,0,0,1,308,99a1.29,1.29,0,0,1,1.37,1.45V103h-.74v-2.53c0-.46-.18-.94-.85-.94s-1,.49-1,1.19V103h-.74v-2.51c0-.51-.15-1-.83-1s-1,.51-1,1.27V103h-.74Z" transform="translate(-2.2 -1.78)"/><path d="M313.84,102.17a6.67,6.67,0,0,0,.06.87h-.71a1.78,1.78,0,0,1-.07-.52,1.41,1.41,0,0,1-1.34.61c-1,0-1.45-.61-1.45-1.21,0-.89.75-1.29,2-1.29h.74v-.34c0-.35-.13-.78-.93-.78s-.85.33-.93.64h-.72c.06-.55.43-1.18,1.67-1.17,1.06,0,1.64.39,1.64,1.3Zm-.73-1.07h-.7c-.86,0-1.32.22-1.32.78a.74.74,0,0,0,.84.72c1,0,1.18-.65,1.18-1.37Z" transform="translate(-2.2 -1.78)"/><path d="M315.88,102.55v2h-.74V100c0-.33,0-.66,0-1h.72a4.88,4.88,0,0,1,0,.62,1.51,1.51,0,0,1,1.41-.71,1.76,1.76,0,0,1,1.73,2,1.92,1.92,0,0,1-1.88,2.18A1.35,1.35,0,0,1,315.88,102.55Zm2.37-1.57c0-.84-.42-1.42-1.16-1.42s-1.25.52-1.25,1.49.29,1.5,1.2,1.5S318.25,102,318.25,101Z" transform="translate(-2.2 -1.78)"/></svg>