<svg id="Calque_1" data-name="Calque 1" xmlns="http://www.w3.org/2000/svg" viewBox="0 0 287.82 113.03"><defs><style>.cls-1{fill:#fff;stroke:#d9d9d9;stroke-miterlimit:10;}.cls-2{fill:#d9d9d9;}</style></defs><ellipse class="cls-1" cx="128.31" cy="65.54" rx="48.11" ry="46.99"/><polygon class="cls-2" points="136.12 19.11 124.43 12.53 124.43 25.7 136.12 19.11"/><polygon class="cls-2" points="180.21 82.85 168.02 77.19 169.1 90.33 180.21 82.85"/><polygon class="cls-2" points="93.19 86.35 82.1 78.85 81 91.98 93.19 86.35"/><path d="M1.15,90c.16.66.65,1,1.51,1S4,90.59,4,90.08,3.66,89.22,2.47,89c-1.4-.31-1.88-.75-1.88-1.52S1.24,86,2.56,86s2,.75,2.08,1.47h-.8c-.11-.49-.44-.88-1.31-.88-.72,0-1.13.3-1.13.81s.34.72,1.38.95c1.69.38,2,1,2,1.68,0,.88-.71,1.57-2.16,1.57S.48,90.82.35,90Z" transform="translate(-0.35 -1.77)"/><path d="M9.21,90.34c0,.39,0,.92,0,1.16H8.5a4.33,4.33,0,0,1,0-.6,1.3,1.3,0,0,1-1.31.69,1.3,1.3,0,0,1-1.43-1.45V87.53h.74V90c0,.53.18,1,.9,1s1.1-.41,1.1-1.4V87.53h.74Z" transform="translate(-0.35 -1.77)"/><path d="M10.5,85.75h.75v.86H10.5Zm0,1.78h.75v4H10.5Z" transform="translate(-0.35 -1.77)"/><path d="M12.82,87.53c.58,1.62,1,2.84,1.14,3.33h0c.1-.44.56-1.63,1.21-3.33h.76l-1.59,4h-.82l-1.51-4Z" transform="translate(-0.35 -1.77)"/><path d="M16.7,85.75h.75v.86H16.7Zm0,1.78h.75v4H16.7Z" transform="translate(-0.35 -1.77)"/><path d="M26.18,88.05l-1.52,2c-.7,1-1.2,1.49-2.3,1.49a1.52,1.52,0,0,1-1.68-1.44c0-.71.43-1.2,1.6-1.76.76-.39,1.19-.64,1.19-1.15a.7.7,0,0,0-.74-.73.71.71,0,0,0-.77.76c0,.34.28.64.72,1l3.57,3.21h-1l-3.18-2.87a1.84,1.84,0,0,1-.8-1.34A1.35,1.35,0,0,1,22.74,86a1.31,1.31,0,0,1,1.43,1.25c0,.61-.42,1-1.48,1.52s-1.24.87-1.24,1.33a.94.94,0,0,0,1,.9c.67,0,1-.25,1.79-1.28l1.18-1.64Z" transform="translate(-0.35 -1.77)"/><path d="M30.35,89.87l-.64,1.63h-.78L31,86.05h1l2.21,5.45h-.84l-.66-1.63Zm2.17-.62c-.57-1.43-.88-2.2-1-2.61h0c-.14.46-.49,1.38-.94,2.61Z" transform="translate(-0.35 -1.77)"/><path d="M38.62,85.75v4.63c0,.37,0,.74,0,1.12h-.72c0-.11,0-.41,0-.56a1.38,1.38,0,0,1-1.36.65,1.8,1.8,0,0,1-1.79-2,1.92,1.92,0,0,1,1.93-2.12c.77,0,1.11.28,1.22.5V85.75Zm-3.13,3.78c0,1,.5,1.48,1.18,1.48,1,0,1.23-.68,1.23-1.55S37.7,88,36.73,88C36,88,35.49,88.57,35.49,89.53Z" transform="translate(-0.35 -1.77)"/><path d="M43.07,90.63a5.24,5.24,0,0,0,.06.87h-.72a2.21,2.21,0,0,1-.07-.52,1.38,1.38,0,0,1-1.33.61c-1,0-1.46-.61-1.46-1.21,0-.89.76-1.29,2.05-1.29h.73v-.34c0-.35-.12-.78-.93-.78s-.84.33-.92.64h-.72c.05-.55.42-1.18,1.67-1.17,1,0,1.64.39,1.64,1.3Zm-.73-1.07h-.7c-.86,0-1.32.22-1.32.78,0,.41.3.72.84.72,1,0,1.18-.65,1.18-1.37Z" transform="translate(-0.35 -1.77)"/><path d="M45.11,91v2h-.75V88.5c0-.33,0-.66,0-1h.73a4.88,4.88,0,0,1,0,.62,1.51,1.51,0,0,1,1.41-.71,1.76,1.76,0,0,1,1.73,2,1.92,1.92,0,0,1-1.88,2.18A1.35,1.35,0,0,1,45.11,91Zm2.37-1.57c0-.84-.42-1.42-1.16-1.42s-1.25.52-1.25,1.49.29,1.5,1.2,1.5S47.48,90.42,47.48,89.44Z" transform="translate(-0.35 -1.77)"/><path d="M48.67,87.53h.74V86.36h.75v1.17h1v.56h-1v2.32c0,.39.1.59.49.59A1.69,1.69,0,0,0,51,91v.52a2.28,2.28,0,0,1-.65.07c-.67,0-1-.32-1-1V88.09h-.74Z" transform="translate(-0.35 -1.77)"/><path d="M55.15,90.63a5.24,5.24,0,0,0,.06.87h-.72a2.21,2.21,0,0,1-.07-.52,1.38,1.38,0,0,1-1.33.61c-1,0-1.46-.61-1.46-1.21,0-.89.76-1.29,2-1.29h.73v-.34c0-.35-.12-.78-.93-.78s-.84.33-.92.64h-.72c0-.55.42-1.18,1.67-1.17,1.05,0,1.64.39,1.64,1.3Zm-.73-1.07h-.7c-.86,0-1.32.22-1.32.78,0,.41.3.72.84.72,1,0,1.18-.65,1.18-1.37Z" transform="translate(-0.35 -1.77)"/><path d="M55.83,87.53h.75V86.36h.74v1.17h1v.56h-1v2.32c0,.39.1.59.5.59a1.67,1.67,0,0,0,.37,0v.52a2.25,2.25,0,0,1-.64.07c-.68,0-1-.32-1-1V88.09h-.75Z" transform="translate(-0.35 -1.77)"/><path d="M59.07,85.75h.75v.86h-.75Zm0,1.78h.75v4h-.75Z" transform="translate(-0.35 -1.77)"/><path d="M64.81,89.51a1.94,1.94,0,0,1-2,2.08,2.08,2.08,0,1,1,2-2.08Zm-3.25,0c0,.87.47,1.51,1.25,1.51s1.23-.6,1.23-1.5S63.6,88,62.79,88,61.56,88.61,61.56,89.51Z" transform="translate(-0.35 -1.77)"/><path d="M65.79,88.53c0-.34,0-.69,0-1h.73c0,.12,0,.53,0,.65a1.37,1.37,0,0,1,1.36-.74A1.35,1.35,0,0,1,69.35,89V91.5H68.6V89c0-.6-.26-1-.92-1-.81,0-1.14.57-1.14,1.37v2.1h-.75Z" transform="translate(-0.35 -1.77)"/><path d="M96.74,5.12v2.4H96V2.07h2.32c1.22,0,1.87.61,1.87,1.46a1.26,1.26,0,0,1-1,1.28c.48.12.9.45.9,1.4v.23a3.52,3.52,0,0,0,.08,1.08h-.76a3.37,3.37,0,0,1-.1-1.17V6.23c0-.77-.24-1.11-1.31-1.11Zm0-.61H98c.91,0,1.31-.31,1.31-.92s-.41-.91-1.22-.91H96.74Z" transform="translate(-0.35 -1.77)"/><path d="M101.76,5.66c0,.81.45,1.38,1.18,1.38a1,1,0,0,0,1-.61h.75a1.73,1.73,0,0,1-1.82,1.18,1.85,1.85,0,0,1-1.91-2,1.9,1.9,0,0,1,2-2.12,1.74,1.74,0,0,1,1.85,1.87c0,.12,0,.22,0,.33Zm2.3-.48A1.06,1.06,0,0,0,103,4c-.76,0-1.1.49-1.17,1.18Z" transform="translate(-0.35 -1.77)"/><path d="M109.24,6.31a1.67,1.67,0,0,1-1.78,1.3,1.85,1.85,0,0,1-1.93-2.05,1.94,1.94,0,0,1,2-2.1,1.56,1.56,0,0,1,1.73,1.32h-.74a.94.94,0,0,0-1-.75c-.77,0-1.2.6-1.2,1.5S106.72,7,107.47,7a1,1,0,0,0,1-.73Z" transform="translate(-0.35 -1.77)"/><path d="M110.89,1.77V4.14a1.47,1.47,0,0,1,1.35-.68A1.37,1.37,0,0,1,113.7,5V7.52H113V5.1c0-.67-.31-1-.94-1-.78,0-1.12.47-1.12,1.3V7.52h-.75V1.77Z" transform="translate(-0.35 -1.77)"/><path d="M115.42,5.66c0,.81.45,1.38,1.18,1.38a1,1,0,0,0,1.05-.61h.75a1.74,1.74,0,0,1-1.82,1.18,1.85,1.85,0,0,1-1.91-2,1.9,1.9,0,0,1,2-2.12,1.74,1.74,0,0,1,1.85,1.87c0,.12,0,.22,0,.33Zm2.3-.48A1.07,1.07,0,0,0,116.62,4c-.76,0-1.1.49-1.17,1.18Z" transform="translate(-0.35 -1.77)"/><path d="M119.45,4.63c0-.56,0-.87,0-1.08h.73c0,.11,0,.42,0,.81a1.53,1.53,0,0,1,1.46-.9v.68a1.31,1.31,0,0,0-1.46,1.45V7.52h-.74Z" transform="translate(-0.35 -1.77)"/><path d="M125.8,6.31A1.69,1.69,0,0,1,124,7.61a1.85,1.85,0,0,1-1.93-2.05,1.94,1.94,0,0,1,2-2.1,1.57,1.57,0,0,1,1.74,1.32h-.74a1,1,0,0,0-1-.75c-.77,0-1.2.6-1.2,1.5S123.27,7,124,7a1,1,0,0,0,1-.73Z" transform="translate(-0.35 -1.77)"/><path d="M127.44,1.77V4.14a1.47,1.47,0,0,1,1.35-.68A1.37,1.37,0,0,1,130.25,5V7.52h-.75V5.1c0-.67-.31-1-.94-1-.78,0-1.12.47-1.12,1.3V7.52h-.75V1.77Z" transform="translate(-0.35 -1.77)"/><path d="M132,5.66c0,.81.45,1.38,1.19,1.38a1,1,0,0,0,1-.61H135a1.73,1.73,0,0,1-1.82,1.18,1.85,1.85,0,0,1-1.91-2,1.91,1.91,0,0,1,2-2.12A1.74,1.74,0,0,1,135,5.33c0,.12,0,.22,0,.33Zm2.31-.48A1.07,1.07,0,0,0,133.17,4c-.76,0-1.1.49-1.17,1.18Z" transform="translate(-0.35 -1.77)"/><path d="M143.41,4.07l-1.52,2c-.7.95-1.21,1.49-2.3,1.49a1.53,1.53,0,0,1-1.69-1.44c0-.71.43-1.2,1.61-1.76.76-.38,1.19-.64,1.19-1.15a.7.7,0,0,0-.74-.73.71.71,0,0,0-.77.76c0,.34.28.64.72,1l3.56,3.21h-1l-3.18-2.87a1.83,1.83,0,0,1-.8-1.34A1.34,1.34,0,0,1,140,2a1.3,1.3,0,0,1,1.43,1.25c0,.6-.42,1-1.48,1.51s-1.24.88-1.24,1.33a.94.94,0,0,0,1,.9c.66,0,1-.25,1.79-1.28l1.17-1.64Z" transform="translate(-0.35 -1.77)"/><path d="M147.58,5.89l-.64,1.63h-.78l2.11-5.45h1l2.21,5.45h-.84L150,5.89Zm2.17-.62c-.57-1.43-.88-2.19-1-2.61h0c-.14.46-.49,1.38-.95,2.61Z" transform="translate(-0.35 -1.77)"/><path d="M155.62,6.36c0,.39,0,.93,0,1.16h-.73c0-.1,0-.35,0-.59a1.28,1.28,0,0,1-1.3.68,1.3,1.3,0,0,1-1.43-1.45V3.55h.74V6c0,.52.17,1,.89,1s1.1-.41,1.1-1.4V3.55h.75Z" transform="translate(-0.35 -1.77)"/><path d="M160.51,1.77V6.4c0,.37,0,.74,0,1.12h-.72c0-.1,0-.41,0-.56a1.38,1.38,0,0,1-1.36.65,1.8,1.8,0,0,1-1.79-2,1.92,1.92,0,0,1,1.93-2.12c.77,0,1.11.28,1.22.5V1.77Zm-3.13,3.79c0,1,.5,1.47,1.18,1.47,1,0,1.23-.68,1.23-1.55S159.59,4,158.62,4C157.86,4,157.38,4.59,157.38,5.56Z" transform="translate(-0.35 -1.77)"/><path d="M161.79,1.77h.74v.86h-.74Zm0,1.78h.74v4h-.74Z" transform="translate(-0.35 -1.77)"/><path d="M163.3,3.55h.75V2.38h.74V3.55h1v.56h-1V6.44c0,.38.11.58.5.58a2.4,2.4,0,0,0,.37,0V7.5a1.94,1.94,0,0,1-.64.08c-.68,0-1-.32-1-1V4.11h-.75Z" transform="translate(-0.35 -1.77)"/><path d="M189.26,90.4,188.62,92h-.79L190,86.58h1l2.2,5.45h-.84l-.66-1.63Zm2.16-.62c-.56-1.43-.87-2.19-1-2.61h0c-.15.46-.49,1.38-.95,2.61Z" transform="translate(-0.35 -1.77)"/><path d="M194.69,91.54v2H194V89c0-.32,0-.66,0-1h.72a5,5,0,0,1,0,.63A1.51,1.51,0,0,1,196.1,88a1.77,1.77,0,0,1,1.73,2A1.92,1.92,0,0,1,196,92.12,1.33,1.33,0,0,1,194.69,91.54ZM197.06,90c0-.84-.42-1.42-1.16-1.42-.89,0-1.25.52-1.25,1.49s.29,1.51,1.2,1.51S197.06,91,197.06,90Z" transform="translate(-0.35 -1.77)"/><path d="M199.55,91.54v2h-.74V89c0-.32,0-.66,0-1h.73a5.37,5.37,0,0,1,0,.63A1.54,1.54,0,0,1,201,88a1.77,1.77,0,0,1,1.73,2,1.92,1.92,0,0,1-1.89,2.18A1.34,1.34,0,0,1,199.55,91.54ZM201.93,90c0-.84-.42-1.42-1.16-1.42-.9,0-1.25.52-1.25,1.49s.29,1.51,1.19,1.51S201.93,91,201.93,90Z" transform="translate(-0.35 -1.77)"/><path d="M203.68,92V86.28h.74V92Z" transform="translate(-0.35 -1.77)"/><path d="M205.7,86.28h.75v.86h-.75Zm0,1.78h.75v4h-.75Z" transform="translate(-0.35 -1.77)"/><path d="M211.14,90.82a1.69,1.69,0,0,1-1.79,1.3,1.85,1.85,0,0,1-1.93-2.05,1.94,1.94,0,0,1,2-2.1,1.57,1.57,0,0,1,1.74,1.32h-.74a1,1,0,0,0-1-.75c-.77,0-1.2.6-1.2,1.5s.42,1.51,1.17,1.51a1,1,0,0,0,1-.73Z" transform="translate(-0.35 -1.77)"/><path d="M215.29,91.16a5.05,5.05,0,0,0,.06.87h-.72a2.21,2.21,0,0,1-.07-.52,1.36,1.36,0,0,1-1.33.61c-1,0-1.46-.6-1.46-1.21,0-.88.76-1.29,2-1.29h.73v-.34c0-.35-.12-.78-.93-.78s-.84.33-.92.64H212c.06-.54.42-1.18,1.67-1.17,1,0,1.64.4,1.64,1.3Zm-.73-1.06h-.7c-.86,0-1.32.21-1.32.77s.3.72.84.72c1,0,1.18-.65,1.18-1.37Z" transform="translate(-0.35 -1.77)"/><path d="M216,88.06h.75V86.89h.74v1.17h1v.56h-1V91c0,.38.11.58.5.58a2.4,2.4,0,0,0,.37,0V92a1.94,1.94,0,0,1-.64.08c-.67,0-1-.32-1-1V88.62H216Z" transform="translate(-0.35 -1.77)"/><path d="M219.21,86.28H220v.86h-.75Zm0,1.78H220v4h-.75Z" transform="translate(-0.35 -1.77)"/><path d="M225,90a1.94,1.94,0,0,1-2,2.08,1.92,1.92,0,0,1-2-2.07A1.94,1.94,0,0,1,223,88,1.9,1.9,0,0,1,225,90Zm-3.25,0c0,.87.47,1.5,1.25,1.5s1.23-.6,1.23-1.5-.44-1.51-1.25-1.51S221.7,89.14,221.7,90.05Z" transform="translate(-0.35 -1.77)"/><path d="M225.93,89.06v-1h.72c0,.12,0,.54,0,.65A1.37,1.37,0,0,1,228,88a1.35,1.35,0,0,1,1.45,1.51V92h-.75V89.57c0-.6-.25-1-.91-1-.82,0-1.15.57-1.15,1.37V92h-.75Z" transform="translate(-0.35 -1.77)"/><path d="M236.52,86.28v4.63c0,.37,0,.74,0,1.12h-.72c0-.1,0-.41,0-.56a1.38,1.38,0,0,1-1.36.65,1.8,1.8,0,0,1-1.79-2A1.93,1.93,0,0,1,234.55,88c.77,0,1.11.28,1.22.5V86.28Zm-3.13,3.79c0,1,.5,1.47,1.18,1.47,1,0,1.23-.68,1.23-1.55s-.2-1.44-1.17-1.44C233.86,88.55,233.39,89.1,233.39,90.07Z" transform="translate(-0.35 -1.77)"/><path d="M238.24,90.17c0,.81.45,1.38,1.19,1.38a1,1,0,0,0,1-.61h.75a1.73,1.73,0,0,1-1.82,1.18,1.85,1.85,0,0,1-1.91-2,1.91,1.91,0,0,1,2-2.12,1.74,1.74,0,0,1,1.85,1.87c0,.12,0,.22,0,.33Zm2.31-.48a1.07,1.07,0,0,0-1.11-1.18c-.76,0-1.09.49-1.17,1.18Z" transform="translate(-0.35 -1.77)"/><path d="M244.39,92V86.28h.74V92Z" transform="translate(-0.35 -1.77)"/><path d="M249.58,91.16a6.38,6.38,0,0,0,.06.87h-.71a1.78,1.78,0,0,1-.07-.52,1.39,1.39,0,0,1-1.34.61c-1,0-1.45-.6-1.45-1.21,0-.88.75-1.29,2-1.29h.74v-.34c0-.35-.13-.78-.93-.78s-.85.33-.93.64h-.72c.06-.54.43-1.18,1.67-1.17,1.06,0,1.64.4,1.64,1.3Zm-.73-1.06h-.7c-.86,0-1.32.21-1.32.77s.31.72.84.72c1,0,1.18-.65,1.18-1.37Z" transform="translate(-0.35 -1.77)"/><path d="M254,89.63V92h-.78V86.58h2.32c1.22,0,1.87.61,1.87,1.46a1.26,1.26,0,0,1-1,1.28c.49.12.91.45.91,1.4V91a3.52,3.52,0,0,0,.08,1.08h-.77a3.64,3.64,0,0,1-.1-1.17v-.12c0-.77-.23-1.11-1.3-1.11Zm0-.61h1.29c.91,0,1.3-.31,1.3-.92s-.41-.91-1.21-.91H254Z" transform="translate(-0.35 -1.77)"/><path d="M262.25,90a2,2,0,0,1-2,2.08,1.92,1.92,0,0,1-2-2.07,2,2,0,0,1,2-2.08A1.91,1.91,0,0,1,262.25,90Zm-3.26,0c0,.87.48,1.5,1.25,1.5s1.24-.6,1.24-1.5-.44-1.51-1.25-1.51S259,89.14,259,90.05Z" transform="translate(-0.35 -1.77)"/><path d="M266.44,91.16a6.38,6.38,0,0,0,.06.87h-.71a1.78,1.78,0,0,1-.07-.52,1.39,1.39,0,0,1-1.34.61c-1,0-1.45-.6-1.45-1.21,0-.88.75-1.29,2-1.29h.74v-.34c0-.35-.13-.78-.93-.78s-.85.33-.93.64h-.72c.06-.54.43-1.18,1.67-1.17,1.06,0,1.64.4,1.64,1.3Zm-.73-1.06H265c-.86,0-1.32.21-1.32.77s.31.72.84.72c1,0,1.18-.65,1.18-1.37Z" transform="translate(-0.35 -1.77)"/><path d="M271.32,86.28v4.63c0,.37,0,.74,0,1.12h-.71a4.45,4.45,0,0,1,0-.56,1.39,1.39,0,0,1-1.36.65,1.81,1.81,0,0,1-1.8-2A1.93,1.93,0,0,1,269.36,88c.76,0,1.1.28,1.22.5V86.28Zm-3.12,3.79c0,1,.49,1.47,1.17,1.47,1,0,1.24-.68,1.24-1.55s-.2-1.44-1.18-1.44C268.67,88.55,268.2,89.1,268.2,90.07Z" transform="translate(-0.35 -1.77)"/><path d="M272.6,89.08c0-.34,0-.7,0-1h.72c0,.12,0,.41,0,.61a1.37,1.37,0,0,1,1.26-.7,1.2,1.2,0,0,1,1.2.71,1.49,1.49,0,0,1,1.38-.71,1.28,1.28,0,0,1,1.36,1.45V92h-.74V89.51c0-.47-.18-1-.85-1s-1,.49-1,1.19V92h-.73v-2.5c0-.51-.16-1-.84-1s-1,.52-1,1.27V92h-.74Z" transform="translate(-0.35 -1.77)"/><path d="M283,91.16a6.38,6.38,0,0,0,.06.87h-.71a1.78,1.78,0,0,1-.07-.52,1.38,1.38,0,0,1-1.34.61c-1,0-1.45-.6-1.45-1.21,0-.88.76-1.29,2-1.29h.74v-.34c0-.35-.12-.78-.93-.78s-.85.33-.93.64h-.72c.06-.54.43-1.18,1.67-1.17,1.06,0,1.64.4,1.64,1.3Zm-.73-1.06h-.7c-.86,0-1.32.21-1.32.77s.31.72.84.72c1,0,1.18-.65,1.18-1.37Z" transform="translate(-0.35 -1.77)"/><path d="M285,91.54v2h-.74V89c0-.32,0-.66,0-1H285c0,.13,0,.37,0,.63a1.53,1.53,0,0,1,1.42-.72,1.76,1.76,0,0,1,1.72,2,1.92,1.92,0,0,1-1.88,2.18A1.34,1.34,0,0,1,285,91.54ZM287.4,90c0-.84-.41-1.42-1.15-1.42-.9,0-1.25.52-1.25,1.49s.29,1.51,1.19,1.51S287.4,91,287.4,90Z" transform="translate(-0.35 -1.77)"/></svg>