<svg id="Calque_1" data-name="Calque 1" xmlns="http://www.w3.org/2000/svg" viewBox="0 0 2745.1 941.18"><defs><style>.cls-1{fill:#fff;stroke:#d9d9d9;stroke-miterlimit:10;stroke-width:15px;}.cls-2{fill:#d9d9d9;}</style></defs><circle class="cls-1" cx="1212.85" cy="546.16" r="387.51"/><polygon class="cls-2" points="1275.7 163.26 1181.6 108.93 1181.6 217.59 1275.7 163.26"/><polygon class="cls-2" points="1630.83 688.9 1532.69 642.26 1541.36 750.57 1630.83 688.9"/><polygon class="cls-2" points="929.96 717.8 840.62 655.97 831.74 764.26 929.96 717.8"/><path d="M32.55,733.93c1.7,7.51,6.83,11.57,15.9,11.57,9.77,0,13.64-4.58,13.64-10.49,0-6.29-3.09-9.8-15.64-12.84-14.75-3.59-19.88-8.64-19.88-17.44,0-9.3,6.86-16.88,20.84-16.88,14.91,0,21,8.62,21.89,16.84H60.85c-1.12-5.57-4.61-10.14-13.74-10.14-7.62,0-11.91,3.43-11.91,9.4s3.54,8.19,14.51,10.85c17.86,4.35,21,11.3,21,19.34,0,10.09-7.48,18-22.8,18-15.74,0-22.52-8.61-23.82-18.22Z" transform="translate(-24.1 -38.69)"/><path d="M117.56,738.07c0,4.44.06,10.6.09,13.29H110c-.18-1.2-.27-4-.31-6.84-2.24,5.06-6.63,7.92-13.82,7.92-7.69,0-15.07-3.82-15.07-16.7v-30h7.82v28.32c0,6,1.87,11.53,9.45,11.53,8.39,0,11.62-4.65,11.62-16.05v-23.8h7.88Z" transform="translate(-24.1 -38.69)"/><path d="M131.07,685.29H139v9.85h-7.88Zm0,20.44H139v45.63h-7.88Z" transform="translate(-24.1 -38.69)"/><path d="M155.54,705.73c6.14,18.66,10.64,32.61,12,38.3h.09c1.12-5.08,6-18.74,12.82-38.3h8l-16.79,45.63H163l-15.92-45.63Z" transform="translate(-24.1 -38.69)"/><path d="M196.5,685.29h7.88v9.85H196.5Zm0,20.44h7.88v45.63H196.5Z" transform="translate(-24.1 -38.69)"/><path d="M296.46,711.66l-16,23.5c-7.45,11-12.75,17.1-24.27,17.1-11.72,0-17.82-8.44-17.82-16.52s4.53-13.79,17-20.23c8-4.44,12.57-7.37,12.57-13.2,0-4.31-2.61-8.41-7.84-8.41-4.84,0-8.13,3.16-8.13,8.71,0,3.92,2.91,7.38,7.58,11.81l37.64,36.94h-10.7l-33.54-33c-5-4.85-8.47-9.21-8.47-15.35,0-8,5.63-15.14,15.7-15.14,9.28,0,15.12,6.56,15.12,14.37,0,6.95-4.48,11.26-15.65,17.46-10.81,5.61-13,10-13,15.22a10.31,10.31,0,0,0,10.22,10.37c7,0,11-2.87,18.85-14.74l12.42-18.87Z" transform="translate(-24.1 -38.69)"/><path d="M340.38,732.58l-6.73,18.78h-8.27l22.3-62.61H357.9l23.26,62.61h-8.85l-6.94-18.78Zm22.86-7.11c-6-16.46-9.25-25.2-10.61-30h-.09c-1.53,5.32-5.19,15.9-10,30Z" transform="translate(-24.1 -38.69)"/><path d="M427.59,685.29v53.18c0,4.29,0,8.49.09,12.89h-7.57c-.21-1.2-.36-4.7-.4-6.47-2.25,4.75-6.87,7.55-14.35,7.55-11.73,0-18.94-9.5-18.94-23.42s7.78-24.37,20.4-24.37c8.07,0,11.67,3.26,12.89,5.82V685.29Zm-33,43.49c0,11,5.24,17,12.41,17,10.66,0,13-7.87,13-17.88s-2.12-16.55-12.4-16.55C399.58,711.33,394.6,717.71,394.6,728.78Z" transform="translate(-24.1 -38.69)"/><path d="M474.48,741.41a70.58,70.58,0,0,0,.63,10h-7.54a25.1,25.1,0,0,1-.75-6c-1.59,3-5.23,7.05-14.09,7.05-10.76,0-15.35-7-15.35-13.94,0-10.19,8-14.85,21.56-14.85h7.79v-3.89c0-4-1.29-8.93-9.83-8.93-7.62,0-8.91,3.78-9.74,7.34h-7.62c.6-6.29,4.49-13.55,17.61-13.52,11.15,0,17.33,4.57,17.33,15Zm-7.7-12.29H459.4c-9.1,0-14,2.51-14,8.94,0,4.75,3.25,8.2,8.88,8.2,11,0,12.47-7.4,12.47-15.68Z" transform="translate(-24.1 -38.69)"/><path d="M495.94,745.72V769.3h-7.85V716.86c0-3.72,0-7.58-.09-11.13h7.67c.17,1.52.27,4.28.27,7.17,2.47-4.6,7.1-8.25,14.92-8.25,10.55,0,18.22,8.84,18.22,22.73,0,16.29-8.8,25.06-19.85,25.06C501.85,752.44,498,749.35,495.94,745.72Zm25-18c0-9.67-4.4-16.29-12.19-16.29-9.46,0-13.2,6-13.2,17.07,0,10.79,3.07,17.33,12.6,17.33C516.51,745.79,521,738.92,521,727.68Z" transform="translate(-24.1 -38.69)"/><path d="M533.45,705.73h7.89V692.26h7.88v13.47h10.07v6.43H549.22v26.73c0,4.43,1.08,6.71,5.21,6.71a17.46,17.46,0,0,0,4-.38v5.93a21,21,0,0,1-6.82.84c-7.1,0-10.24-3.67-10.24-11.25V712.16h-7.89Z" transform="translate(-24.1 -38.69)"/><path d="M601.83,741.41a70.58,70.58,0,0,0,.63,10h-7.54a25.1,25.1,0,0,1-.75-6c-1.59,3-5.23,7.05-14.09,7.05-10.76,0-15.35-7-15.35-13.94,0-10.19,8-14.85,21.56-14.85h7.78v-3.89c0-4-1.28-8.93-9.82-8.93-7.62,0-8.91,3.78-9.74,7.34h-7.62c.6-6.29,4.49-13.55,17.61-13.52,11.15,0,17.33,4.57,17.33,15Zm-7.7-12.29h-7.38c-9.1,0-14,2.51-14,8.94,0,4.75,3.25,8.2,8.88,8.2,11,0,12.47-7.4,12.47-15.68Z" transform="translate(-24.1 -38.69)"/><path d="M609,705.73h7.89V692.26h7.88v13.47H634.8v6.43H624.73v26.73c0,4.43,1.08,6.71,5.2,6.71a17.55,17.55,0,0,0,4-.38v5.93a21,21,0,0,1-6.82.84c-7.1,0-10.24-3.67-10.24-11.25V712.16H609Z" transform="translate(-24.1 -38.69)"/><path d="M643.16,685.29H651v9.85h-7.88Zm0,20.44H651v45.63h-7.88Z" transform="translate(-24.1 -38.69)"/><path d="M703.71,728.46c0,13.14-7.53,24-21.48,24-13.08,0-21-10.11-21-23.83,0-13.48,7.75-24,21.5-24C695.41,704.65,703.71,714.14,703.71,728.46Zm-34.35.09c0,10,5,17.31,13.19,17.31,8.35,0,13.05-6.93,13.05-17.28s-4.67-17.34-13.23-17.34S669.36,718.13,669.36,728.55Z" transform="translate(-24.1 -38.69)"/><path d="M714,717.23c0-4,0-8-.09-11.5h7.66a75,75,0,0,1,.31,7.5c1.82-3.92,5.54-8.58,14.37-8.58,8.55,0,15.24,5.23,15.24,17.36v29.35h-7.87V723c0-6.89-2.7-11.54-9.67-11.54-8.6,0-12.07,6.55-12.07,15.72v24.16H714Z" transform="translate(-24.1 -38.69)"/><path d="M899.91,77.18v27.58h-8.23V42.14h24.47c12.86,0,19.72,7,19.72,16.75,0,8.14-4.67,13.08-10.67,14.73,5.11,1.37,9.55,5.19,9.55,16.06v2.68c0,4.32-.2,9.78.85,12.4h-8.08c-1.14-2.7-1.06-7.58-1.06-13.46V90c0-8.92-2.51-12.79-13.75-12.79Zm0-7h13.62c9.57,0,13.77-3.6,13.77-10.63,0-6.66-4.33-10.43-12.84-10.43H899.91Z" transform="translate(-24.1 -38.69)"/><path d="M952.85,83.37c.06,9.29,4.73,15.88,12.48,15.88,7.22,0,9.55-3.72,11-7.06h7.93c-1.79,5.85-6.69,13.65-19.19,13.65-14.35,0-20.2-11.66-20.2-23.41,0-13.57,6.83-24.39,20.7-24.39,14.72,0,19.55,11.81,19.55,21.55,0,1.39,0,2.55-.12,3.78Zm24.29-5.55c-.09-7.51-3.86-13.54-11.66-13.54-8,0-11.56,5.59-12.36,13.54Z" transform="translate(-24.1 -38.69)"/><path d="M1031.76,90.8c-1.93,7.85-7.25,15-18.86,15-12.55,0-20.34-9-20.34-23.66,0-12.9,7.3-24.14,20.91-24.14,13.15,0,17.71,9.38,18.29,15.26H1024c-1.12-4.64-4-8.67-10.63-8.67-8.07,0-12.64,6.92-12.64,17.28s4.43,17.37,12.35,17.37c5.71,0,9-3,10.89-8.48Z" transform="translate(-24.1 -38.69)"/><path d="M1049.07,38.69V65.85c2.33-4,6.49-7.81,14.25-7.81,7.31,0,15.37,4,15.37,17.59v29.13h-7.85V76.94c0-7.76-3.29-12.06-9.93-12.06-8.2,0-11.84,5.42-11.84,14.93v25h-7.87V38.69Z" transform="translate(-24.1 -38.69)"/><path d="M1096.85,83.37c.06,9.29,4.73,15.88,12.48,15.88,7.22,0,9.55-3.72,11-7.06h7.94c-1.79,5.85-6.69,13.65-19.19,13.65-14.35,0-20.2-11.66-20.2-23.41,0-13.57,6.83-24.39,20.7-24.39,14.72,0,19.55,11.81,19.55,21.55,0,1.39,0,2.55-.12,3.78Zm24.29-5.55c-.09-7.51-3.86-13.54-11.66-13.54-8,0-11.56,5.59-12.36,13.54Z" transform="translate(-24.1 -38.69)"/><path d="M1139.29,71.52c0-6.38,0-10-.09-12.4h7.73c.12,1.28.24,4.86.24,9.32,2.39-6.18,7.83-10.16,15.37-10.4V65.9c-9.36.28-15.37,5.16-15.37,16.7v22.16h-7.88Z" transform="translate(-24.1 -38.69)"/><path d="M1206.27,90.8c-1.94,7.85-7.25,15-18.86,15-12.56,0-20.34-9-20.34-23.66,0-12.9,7.3-24.14,20.91-24.14,13.15,0,17.7,9.38,18.29,15.26h-7.81c-1.12-4.64-4-8.67-10.63-8.67-8.08,0-12.65,6.92-12.65,17.28s4.44,17.37,12.36,17.37c5.71,0,9-3,10.89-8.48Z" transform="translate(-24.1 -38.69)"/><path d="M1223.58,38.69V65.85c2.33-4,6.49-7.81,14.25-7.81,7.31,0,15.36,4,15.36,17.59v29.13h-7.84V76.94c0-7.76-3.29-12.06-9.93-12.06-8.21,0-11.84,5.42-11.84,14.93v25h-7.88V38.69Z" transform="translate(-24.1 -38.69)"/><path d="M1271.36,83.37c.06,9.29,4.73,15.88,12.48,15.88,7.21,0,9.55-3.72,11-7.06h7.94c-1.8,5.85-6.69,13.65-19.2,13.65-14.34,0-20.2-11.66-20.2-23.41,0-13.57,6.84-24.39,20.71-24.39,14.72,0,19.55,11.81,19.55,21.55a35.2,35.2,0,0,1-.13,3.78Zm24.29-5.55c-.09-7.51-3.86-13.54-11.66-13.54-8,0-11.56,5.59-12.36,13.54Z" transform="translate(-24.1 -38.69)"/><path d="M1392,65.06l-16,23.5c-7.46,11-12.76,17.1-24.27,17.1-11.73,0-17.82-8.45-17.82-16.53s4.53-13.79,16.95-20.22c8-4.44,12.57-7.38,12.57-13.2,0-4.31-2.61-8.41-7.84-8.41-4.84,0-8.13,3.16-8.13,8.71,0,3.92,2.92,7.38,7.58,11.81l37.65,36.94H1382l-33.54-33c-5-4.85-8.47-9.21-8.47-15.34,0-8,5.63-15.15,15.71-15.15,9.27,0,15.11,6.57,15.11,14.37,0,7-4.48,11.26-15.64,17.46-10.81,5.61-13,10-13,15.22a10.32,10.32,0,0,0,10.22,10.38c7,0,11-2.87,18.85-14.75l12.42-18.86Z" transform="translate(-24.1 -38.69)"/><path d="M1435.9,86l-6.73,18.78h-8.26l22.3-62.62h10.22l23.26,62.62h-8.85L1460.89,86Zm22.86-7.12c-6-16.45-9.25-25.2-10.6-30h-.09c-1.53,5.31-5.2,15.9-10,30Z" transform="translate(-24.1 -38.69)"/><path d="M1520.7,91.46c0,4.44.06,10.6.09,13.3h-7.66c-.18-1.2-.27-4-.31-6.84-2.24,5-6.63,7.92-13.82,7.92-7.69,0-15.07-3.83-15.07-16.71v-30h7.82V87.45c0,6,1.87,11.52,9.45,11.52,8.39,0,11.62-4.64,11.62-16V59.12h7.88Z" transform="translate(-24.1 -38.69)"/><path d="M1572.26,38.69V91.86c0,4.29,0,8.49.09,12.9h-7.57a62.48,62.48,0,0,1-.4-6.48c-2.25,4.76-6.88,7.56-14.36,7.56-11.73,0-18.94-9.51-18.94-23.42S1538.86,58,1551.48,58c8.08,0,11.68,3.27,12.9,5.83V38.69Zm-33,43.48c0,11,5.24,17,12.41,17,10.67,0,13-7.88,13-17.88,0-10.15-2.12-16.55-12.4-16.55C1544.24,64.73,1539.26,71.1,1539.26,82.17Z" transform="translate(-24.1 -38.69)"/><path d="M1585.69,38.69h7.88v9.84h-7.88Zm0,20.43h7.88v45.64h-7.88Z" transform="translate(-24.1 -38.69)"/><path d="M1601.61,59.12h7.89V45.66h7.88V59.12h10.07v6.43h-10.07V92.28c0,4.44,1.08,6.71,5.21,6.71a17.6,17.6,0,0,0,4-.38v5.94a21.39,21.39,0,0,1-6.83.84c-7.09,0-10.24-3.68-10.24-11.26V65.55h-7.89Z" transform="translate(-24.1 -38.69)"/><path d="M1726.32,732.58l-6.73,18.78h-8.27l22.3-62.61h10.22l23.26,62.61h-8.84l-7-18.78Zm22.86-7.11c-6-16.46-9.25-25.2-10.61-30h-.09c-1.53,5.32-5.19,15.9-10,30Z" transform="translate(-24.1 -38.69)"/><path d="M1783.6,745.72V769.3h-7.85V716.86c0-3.72,0-7.58-.09-11.13h7.66c.18,1.52.28,4.28.28,7.17,2.47-4.6,7.1-8.25,14.92-8.25,10.55,0,18.22,8.84,18.22,22.73,0,16.29-8.8,25.06-19.85,25.06C1789.51,752.44,1785.66,749.35,1783.6,745.72Zm25-18c0-9.67-4.4-16.29-12.19-16.29-9.46,0-13.19,6-13.19,17.07,0,10.79,3.06,17.33,12.59,17.33C1804.17,745.79,1808.62,738.92,1808.62,727.68Z" transform="translate(-24.1 -38.69)"/><path d="M1834.9,745.72V769.3h-7.85V716.86c0-3.72,0-7.58-.09-11.13h7.66c.18,1.52.28,4.28.28,7.17,2.47-4.6,7.1-8.25,14.92-8.25,10.55,0,18.22,8.84,18.22,22.73,0,16.29-8.8,25.06-19.85,25.06C1840.81,752.44,1837,749.35,1834.9,745.72Zm25-18c0-9.67-4.4-16.29-12.2-16.29-9.45,0-13.19,6-13.19,17.07,0,10.79,3.07,17.33,12.6,17.33C1855.47,745.79,1859.92,738.92,1859.92,727.68Z" transform="translate(-24.1 -38.69)"/><path d="M1878.35,751.36V685.29h7.88v66.07Z" transform="translate(-24.1 -38.69)"/><path d="M1899.68,685.29h7.88v9.85h-7.88Zm0,20.44h7.88v45.63h-7.88Z" transform="translate(-24.1 -38.69)"/><path d="M1957,737.4c-1.94,7.86-7.25,15-18.86,15-12.56,0-20.34-9-20.34-23.65,0-12.9,7.3-24.14,20.91-24.14,13.15,0,17.71,9.37,18.29,15.26h-7.81c-1.12-4.65-4-8.67-10.63-8.67-8.08,0-12.65,6.92-12.65,17.27s4.44,17.38,12.36,17.38c5.71,0,9-3,10.89-8.49Z" transform="translate(-24.1 -38.69)"/><path d="M2000.81,741.41a70.58,70.58,0,0,0,.63,10h-7.54a25.8,25.8,0,0,1-.74-6c-1.59,3-5.24,7.05-14.09,7.05-10.76,0-15.35-7-15.35-13.94,0-10.19,8-14.85,21.56-14.85h7.78v-3.89c0-4-1.28-8.93-9.82-8.93-7.63,0-8.91,3.78-9.74,7.34h-7.63c.61-6.29,4.5-13.55,17.62-13.52,11.15,0,17.32,4.57,17.32,15Zm-7.69-12.29h-7.38c-9.1,0-14,2.51-14,8.94,0,4.75,3.25,8.2,8.88,8.2,11,0,12.47-7.4,12.47-15.68Z" transform="translate(-24.1 -38.69)"/><path d="M2007.94,705.73h7.9V692.26h7.87v13.47h10.08v6.43h-10.08v26.73c0,4.43,1.08,6.71,5.21,6.71a17.55,17.55,0,0,0,4-.38v5.93a21,21,0,0,1-6.82.84c-7.1,0-10.24-3.67-10.24-11.25V712.16h-7.9Z" transform="translate(-24.1 -38.69)"/><path d="M2042.15,685.29H2050v9.85h-7.88Zm0,20.44H2050v45.63h-7.88Z" transform="translate(-24.1 -38.69)"/><path d="M2102.7,728.46c0,13.14-7.53,24-21.48,24-13.08,0-21-10.11-21-23.83,0-13.48,7.75-24,21.5-24C2094.4,704.65,2102.7,714.14,2102.7,728.46Zm-34.35.09c0,10,5,17.31,13.19,17.31,8.35,0,13.05-6.93,13.05-17.28s-4.67-17.34-13.23-17.34S2068.35,718.13,2068.35,728.55Z" transform="translate(-24.1 -38.69)"/><path d="M2113,717.23c0-4,0-8-.09-11.5h7.66c.21,1.34.34,6.14.31,7.5,1.82-3.92,5.54-8.58,14.37-8.58,8.55,0,15.24,5.23,15.24,17.36v29.35h-7.88V723c0-6.89-2.69-11.54-9.66-11.54-8.6,0-12.07,6.55-12.07,15.72v24.16H2113Z" transform="translate(-24.1 -38.69)"/><path d="M2224.65,685.29v53.18c0,4.29,0,8.49.09,12.89h-7.57a62.09,62.09,0,0,1-.4-6.47c-2.25,4.75-6.88,7.55-14.36,7.55-11.73,0-18.94-9.5-18.94-23.42s7.78-24.37,20.4-24.37c8.08,0,11.68,3.26,12.9,5.82V685.29Zm-33,43.49c0,11,5.24,17,12.41,17,10.67,0,13-7.87,13-17.88s-2.13-16.55-12.4-16.55C2196.63,711.33,2191.65,717.71,2191.65,728.78Z" transform="translate(-24.1 -38.69)"/><path d="M2242.8,730c.06,9.28,4.73,15.88,12.47,15.88,7.22,0,9.56-3.72,11-7.06h7.93c-1.79,5.84-6.69,13.64-19.19,13.64-14.35,0-20.2-11.66-20.2-23.41,0-13.57,6.83-24.38,20.71-24.38,14.72,0,19.54,11.81,19.54,21.54,0,1.39,0,2.55-.12,3.79Zm24.29-5.55c-.09-7.51-3.87-13.54-11.67-13.54-8,0-11.55,5.58-12.35,13.54Z" transform="translate(-24.1 -38.69)"/><path d="M2307.56,751.36V685.29h7.88v66.07Z" transform="translate(-24.1 -38.69)"/><path d="M2362.34,741.41a70.58,70.58,0,0,0,.63,10h-7.54a24.71,24.71,0,0,1-.74-6c-1.6,3-5.24,7.05-14.1,7.05-10.75,0-15.35-7-15.35-13.94,0-10.19,8-14.85,21.56-14.85h7.79v-3.89c0-4-1.29-8.93-9.83-8.93-7.62,0-8.91,3.78-9.74,7.34h-7.62c.6-6.29,4.49-13.55,17.61-13.52,11.16,0,17.33,4.57,17.33,15Zm-7.69-12.29h-7.39c-9.1,0-14,2.51-14,8.94,0,4.75,3.26,8.2,8.89,8.2,11,0,12.47-7.4,12.47-15.68Z" transform="translate(-24.1 -38.69)"/><path d="M2408.46,723.78v27.58h-8.23V688.75h24.47c12.87,0,19.72,7,19.72,16.75,0,8.14-4.67,13.07-10.67,14.73,5.11,1.37,9.55,5.18,9.55,16V739c0,4.31-.2,9.77.85,12.39h-8.08c-1.14-2.7-1.06-7.58-1.06-13.45v-1.34c0-8.91-2.51-12.79-13.75-12.79Zm0-7h13.62c9.57,0,13.78-3.6,13.78-10.64,0-6.65-4.34-10.42-12.85-10.42h-14.55Z" transform="translate(-24.1 -38.69)"/><path d="M2495.91,728.46c0,13.14-7.54,24-21.49,24-13.07,0-21-10.11-21-23.83,0-13.48,7.74-24,21.49-24C2487.61,704.65,2495.91,714.14,2495.91,728.46Zm-34.36.09c0,10,5,17.31,13.2,17.31,8.35,0,13-6.93,13-17.28s-4.67-17.34-13.22-17.34S2461.55,718.13,2461.55,728.55Z" transform="translate(-24.1 -38.69)"/><path d="M2540.09,741.41a70.58,70.58,0,0,0,.63,10h-7.54a25.1,25.1,0,0,1-.75-6c-1.59,3-5.23,7.05-14.09,7.05-10.76,0-15.35-7-15.35-13.94,0-10.19,8-14.85,21.56-14.85h7.79v-3.89c0-4-1.29-8.93-9.83-8.93-7.62,0-8.91,3.78-9.74,7.34h-7.62c.6-6.29,4.49-13.55,17.61-13.52,11.15,0,17.33,4.57,17.33,15Zm-7.69-12.29H2525c-9.1,0-14,2.51-14,8.94,0,4.75,3.25,8.2,8.88,8.2,11,0,12.48-7.4,12.48-15.68Z" transform="translate(-24.1 -38.69)"/><path d="M2591.57,685.29v53.18c0,4.29,0,8.49.09,12.89h-7.57c-.21-1.2-.36-4.7-.39-6.47-2.25,4.75-6.88,7.55-14.36,7.55-11.73,0-18.94-9.5-18.94-23.42s7.78-24.37,20.4-24.37c8.07,0,11.67,3.26,12.9,5.82V685.29Zm-33,43.49c0,11,5.24,17,12.41,17,10.66,0,13-7.87,13-17.88s-2.12-16.55-12.39-16.55C2563.56,711.33,2558.58,717.71,2558.58,728.78Z" transform="translate(-24.1 -38.69)"/><path d="M2605,717.5c0-3.94,0-8.07-.09-11.77h7.59c.12,1.37.34,4.73.31,7a14.1,14.1,0,0,1,13.28-8.1c6.46,0,10.89,3.28,12.63,8.17,2.44-4.32,6.75-8.17,14.54-8.17,7.41,0,14.39,4.37,14.39,16.72v30h-7.75v-29c0-5.3-1.91-10.88-9-10.88-7.43,0-10.65,5.62-10.65,13.71v26.2h-7.73V722.58c0-5.87-1.66-11.1-8.82-11.1-7.33,0-10.86,5.92-10.86,14.63v25.25H2605Z" transform="translate(-24.1 -38.69)"/><path d="M2714.6,741.41a70.58,70.58,0,0,0,.63,10h-7.54a25.1,25.1,0,0,1-.75-6c-1.59,3-5.23,7.05-14.09,7.05-10.76,0-15.35-7-15.35-13.94,0-10.19,8-14.85,21.56-14.85h7.79v-3.89c0-4-1.29-8.93-9.83-8.93-7.62,0-8.91,3.78-9.74,7.34h-7.62c.6-6.29,4.49-13.55,17.61-13.52,11.15,0,17.33,4.57,17.33,15Zm-7.7-12.29h-7.38c-9.1,0-14,2.51-14,8.94,0,4.75,3.25,8.2,8.88,8.2,11,0,12.47-7.4,12.47-15.68Z" transform="translate(-24.1 -38.69)"/><path d="M2736.06,745.72V769.3h-7.85V716.86c0-3.72,0-7.58-.09-11.13h7.66c.18,1.52.28,4.28.28,7.17,2.47-4.6,7.1-8.25,14.92-8.25,10.55,0,18.22,8.84,18.22,22.73,0,16.29-8.8,25.06-19.85,25.06C2742,752.44,2738.12,749.35,2736.06,745.72Zm25-18c0-9.67-4.4-16.29-12.19-16.29-9.46,0-13.19,6-13.19,17.07,0,10.79,3.06,17.33,12.59,17.33C2756.63,745.79,2761.08,738.92,2761.08,727.68Z" transform="translate(-24.1 -38.69)"/></svg>