<svg id="Calque_1" data-name="Calque 1" xmlns="http://www.w3.org/2000/svg" viewBox="0 0 397.65 168.79"><defs><style>.cls-1{fill:#fff;stroke:#d9d9d9;stroke-miterlimit:10;stroke-width:3px;}.cls-2{fill:#d9d9d9;}</style></defs><ellipse class="cls-1" cx="180.67" cy="96.81" rx="72.16" ry="70.48"/><polygon class="cls-2" points="192.37 27.17 174.85 17.29 174.85 37.05 192.37 27.17"/><polygon class="cls-2" points="258.51 122.77 240.23 114.28 241.85 133.99 258.51 122.77"/><polygon class="cls-2" points="127.99 128.03 111.35 116.78 109.7 136.47 127.99 128.03"/><path d="M4.93,129.31c.2.82.81,1.26,1.89,1.26s1.63-.5,1.63-1.14-.37-1.07-1.86-1.4c-1.76-.4-2.37-1-2.37-1.91s.82-1.84,2.48-1.84,2.5.94,2.61,1.84h-1c-.13-.61-.55-1.11-1.64-1.11-.9,0-1.41.37-1.41,1s.42.89,1.72,1.18c2.13.48,2.5,1.23,2.5,2.11,0,1.1-.89,2-2.71,2s-2.68-.94-2.83-2Z" transform="translate(-3.93 -3.53)"/><path d="M15.05,129.76c0,.49,0,1.16,0,1.45h-.91c0-.13,0-.43,0-.74a1.63,1.63,0,0,1-1.64.86,1.63,1.63,0,0,1-1.8-1.82v-3.28h.93v3.09c0,.66.23,1.26,1.13,1.26s1.38-.51,1.38-1.75v-2.6h.94Z" transform="translate(-3.93 -3.53)"/><path d="M16.66,124h.94v1.07h-.94Zm0,2.23h.94v5h-.94Z" transform="translate(-3.93 -3.53)"/><path d="M19.57,126.23c.73,2,1.27,3.56,1.44,4.18h0c.13-.55.71-2,1.52-4.18h1l-2,5h-1l-1.89-5Z" transform="translate(-3.93 -3.53)"/><path d="M24.45,124h.94v1.07h-.94Zm0,2.23h.94v5h-.94Z" transform="translate(-3.93 -3.53)"/><path d="M36.35,126.88l-1.91,2.56c-.88,1.2-1.52,1.87-2.89,1.87a1.92,1.92,0,0,1-2.12-1.8c0-.9.54-1.51,2-2.21,1-.49,1.5-.81,1.5-1.44a1,1,0,0,0-1.9,0c0,.43.34.81.9,1.29l4.48,4H35.16l-4-3.6a2.3,2.3,0,0,1-1-1.68A1.69,1.69,0,0,1,32,124.28a1.64,1.64,0,0,1,1.8,1.57c0,.76-.53,1.23-1.86,1.9s-1.55,1.1-1.55,1.67a1.18,1.18,0,0,0,1.22,1.13c.83,0,1.3-.31,2.24-1.61l1.48-2.06Z" transform="translate(-3.93 -3.53)"/><path d="M41.58,129.16l-.8,2.05h-1l2.66-6.83h1.21l2.77,6.83h-1l-.83-2.05Zm2.72-.77c-.71-1.8-1.1-2.76-1.26-3.28h0c-.19.58-.62,1.74-1.2,3.28Z" transform="translate(-3.93 -3.53)"/><path d="M52,124v5.81c0,.46,0,.92,0,1.4h-.9a6.76,6.76,0,0,1,0-.7,1.74,1.74,0,0,1-1.71.82,2.27,2.27,0,0,1-2.25-2.56,2.42,2.42,0,0,1,2.43-2.66c1,0,1.39.36,1.53.64V124ZM48,128.75c0,1.2.63,1.85,1.48,1.85,1.27,0,1.55-.86,1.55-1.95s-.25-1.81-1.48-1.81C48.63,126.84,48,127.54,48,128.75Z" transform="translate(-3.93 -3.53)"/><path d="M57.54,130.13a6,6,0,0,0,.08,1.08h-.9a2.4,2.4,0,0,1-.09-.65,1.74,1.74,0,0,1-1.68.77c-1.28,0-1.82-.76-1.82-1.52,0-1.11.95-1.62,2.56-1.62h.93v-.43c0-.44-.15-1-1.17-1s-1.06.41-1.16.8h-.91c.08-.69.54-1.48,2.1-1.48,1.33,0,2.06.5,2.06,1.64Zm-.91-1.35h-.88c-1.09,0-1.67.28-1.67,1,0,.52.39.9,1.06.9,1.31,0,1.49-.81,1.49-1.72Z" transform="translate(-3.93 -3.53)"/><path d="M60.1,130.6v2.57h-.94v-5.72c0-.41,0-.83,0-1.22h.92c0,.17,0,.47,0,.78a1.9,1.9,0,0,1,1.77-.9A2.22,2.22,0,0,1,64,128.59c0,1.78-1,2.74-2.36,2.74A1.69,1.69,0,0,1,60.1,130.6Zm3-2c0-1.06-.53-1.78-1.46-1.78-1.12,0-1.57.65-1.57,1.86s.37,1.9,1.5,1.9S63.08,129.86,63.08,128.63Z" transform="translate(-3.93 -3.53)"/><path d="M64.56,126.23h.94v-1.47h.94v1.47h1.2v.7h-1.2v2.92c0,.49.13.73.62.73a1.91,1.91,0,0,0,.47,0v.65a2.69,2.69,0,0,1-.81.09,1.07,1.07,0,0,1-1.22-1.23v-3.12h-.94Z" transform="translate(-3.93 -3.53)"/><path d="M72.7,130.13a7.08,7.08,0,0,0,.08,1.08h-.9a2.9,2.9,0,0,1-.09-.65,1.73,1.73,0,0,1-1.67.77c-1.29,0-1.83-.76-1.83-1.52,0-1.11.95-1.62,2.56-1.62h.93v-.43c0-.44-.15-1-1.17-1s-1.06.41-1.16.8h-.91c.08-.69.54-1.48,2.1-1.48,1.33,0,2.06.5,2.06,1.64Zm-.91-1.35h-.88c-1.08,0-1.66.28-1.66,1,0,.52.38.9,1,.9,1.31,0,1.49-.81,1.49-1.72Z" transform="translate(-3.93 -3.53)"/><path d="M73.55,126.23h.94v-1.47h.94v1.47h1.2v.7h-1.2v2.92c0,.49.13.73.62.73a2,2,0,0,0,.47,0v.65a2.69,2.69,0,0,1-.81.09,1.07,1.07,0,0,1-1.22-1.23v-3.12h-.94Z" transform="translate(-3.93 -3.53)"/><path d="M77.63,124h.93v1.07h-.93Zm0,2.23h.93v5h-.93Z" transform="translate(-3.93 -3.53)"/><path d="M84.83,128.71a2.44,2.44,0,0,1-2.55,2.62,2.41,2.41,0,0,1-2.5-2.6,2.44,2.44,0,0,1,2.56-2.62A2.4,2.4,0,0,1,84.83,128.71Zm-4.09,0c0,1.1.6,1.89,1.57,1.89s1.56-.75,1.56-1.88-.56-1.9-1.58-1.9S80.74,127.58,80.74,128.72Z" transform="translate(-3.93 -3.53)"/><path d="M86.06,127.49c0-.44,0-.87,0-1.26H87a7.5,7.5,0,0,1,0,.82,1.73,1.73,0,0,1,1.71-.94,1.69,1.69,0,0,1,1.81,1.9v3.2h-.93v-3.09c0-.75-.32-1.26-1.15-1.26-1,0-1.44.71-1.44,1.72v2.63h-.94Z" transform="translate(-3.93 -3.53)"/><path d="M145,7.74v3h-1V3.91h2.91c1.53,0,2.35.76,2.35,1.83A1.59,1.59,0,0,1,148,7.35c.6.15,1.13.56,1.13,1.75v.29a4.62,4.62,0,0,0,.1,1.36h-1a4.51,4.51,0,0,1-.12-1.47V9.13c0-1-.3-1.39-1.64-1.39ZM145,7h1.62c1.14,0,1.64-.39,1.64-1.16s-.52-1.14-1.53-1.14H145Z" transform="translate(-3.93 -3.53)"/><path d="M151.29,8.41c0,1,.56,1.74,1.48,1.74a1.28,1.28,0,0,0,1.32-.77H155a2.19,2.19,0,0,1-2.28,1.49,2.34,2.34,0,0,1-2.41-2.56,2.4,2.4,0,0,1,2.47-2.66A2.19,2.19,0,0,1,155.13,8c0,.15,0,.28,0,.41Zm2.89-.6a1.35,1.35,0,0,0-1.39-1.48c-.95,0-1.37.61-1.47,1.48Z" transform="translate(-3.93 -3.53)"/><path d="M160.68,9.22a2.12,2.12,0,0,1-2.24,1.65A2.32,2.32,0,0,1,156,8.28a2.44,2.44,0,0,1,2.49-2.63,2,2,0,0,1,2.17,1.66h-.93a1.18,1.18,0,0,0-1.26-.94c-1,0-1.51.75-1.51,1.88s.53,1.9,1.47,1.9a1.27,1.27,0,0,0,1.3-.93Z" transform="translate(-3.93 -3.53)"/><path d="M162.74,3.53v3a1.87,1.87,0,0,1,1.7-.85,1.71,1.71,0,0,1,1.83,1.92v3.18h-.93v-3c0-.85-.4-1.32-1.19-1.32-1,0-1.41.6-1.41,1.63v2.73h-.93V3.53Z" transform="translate(-3.93 -3.53)"/><path d="M168.43,8.41c0,1,.57,1.74,1.49,1.74a1.25,1.25,0,0,0,1.31-.77h.94a2.18,2.18,0,0,1-2.28,1.49,2.34,2.34,0,0,1-2.41-2.56A2.4,2.4,0,0,1,170,5.65,2.19,2.19,0,0,1,172.28,8a2.68,2.68,0,0,1,0,.41Zm2.89-.6a1.34,1.34,0,0,0-1.38-1.48c-1,0-1.38.61-1.47,1.48Z" transform="translate(-3.93 -3.53)"/><path d="M173.49,7.12c0-.7,0-1.09,0-1.35h.91c0,.14,0,.53,0,1a1.92,1.92,0,0,1,1.83-1.13v.86a1.65,1.65,0,0,0-1.83,1.82v2.42h-.93Z" transform="translate(-3.93 -3.53)"/><path d="M181.46,9.22a2.12,2.12,0,0,1-2.25,1.65,2.33,2.33,0,0,1-2.42-2.59,2.44,2.44,0,0,1,2.49-2.63,2,2,0,0,1,2.18,1.66h-.93a1.19,1.19,0,0,0-1.27-.94c-1,0-1.5.75-1.5,1.88s.53,1.9,1.47,1.9a1.26,1.26,0,0,0,1.29-.93Z" transform="translate(-3.93 -3.53)"/><path d="M183.52,3.53v3a1.85,1.85,0,0,1,1.7-.85A1.7,1.7,0,0,1,187,7.57v3.18h-.93v-3c0-.85-.39-1.32-1.18-1.32-1,0-1.41.6-1.41,1.63v2.73h-.94V3.53Z" transform="translate(-3.93 -3.53)"/><path d="M189.21,8.41c0,1,.56,1.74,1.48,1.74A1.25,1.25,0,0,0,192,9.38H193a2.19,2.19,0,0,1-2.29,1.49,2.33,2.33,0,0,1-2.4-2.56,2.39,2.39,0,0,1,2.46-2.66A2.19,2.19,0,0,1,193.05,8c0,.15,0,.28,0,.41Zm2.89-.6a1.35,1.35,0,0,0-1.39-1.48c-1,0-1.37.61-1.47,1.48Z" transform="translate(-3.93 -3.53)"/><path d="M203.57,6.41,201.66,9c-.89,1.2-1.52,1.87-2.89,1.87A1.92,1.92,0,0,1,196.65,9c0-.89.54-1.5,2-2.21,1-.48,1.5-.8,1.5-1.44a1,1,0,0,0-1.9,0c0,.42.34.8.9,1.28l4.48,4h-1.28l-4-3.61a2.27,2.27,0,0,1-1-1.67,1.7,1.7,0,0,1,1.87-1.66A1.64,1.64,0,0,1,201,5.38c0,.76-.53,1.23-1.86,1.91S197.63,8.38,197.63,9a1.18,1.18,0,0,0,1.22,1.13c.83,0,1.3-.31,2.24-1.61l1.48-2.06Z" transform="translate(-3.93 -3.53)"/><path d="M208.8,8.7l-.8,2.05h-1l2.66-6.84h1.21l2.77,6.84H212.6l-.83-2.05Zm2.72-.78c-.71-1.8-1.1-2.75-1.26-3.27h0c-.18.58-.61,1.73-1.19,3.27Z" transform="translate(-3.93 -3.53)"/><path d="M218.89,9.3c0,.48,0,1.15,0,1.45H218c0-.13,0-.44,0-.75a1.86,1.86,0,0,1-3.44-1V5.77h.94V8.86c0,.65.22,1.26,1.12,1.26S218,9.61,218,8.36V5.77h.94Z" transform="translate(-3.93 -3.53)"/><path d="M225,3.53V9.34c0,.47,0,.93,0,1.41h-.9a7,7,0,0,1,0-.71,1.75,1.75,0,0,1-1.71.83,2.27,2.27,0,0,1-2.25-2.56,2.41,2.41,0,0,1,2.43-2.66c1,0,1.39.35,1.53.63V3.53ZM221.1,8.28c0,1.21.63,1.86,1.48,1.86,1.27,0,1.55-.86,1.55-2s-.25-1.8-1.48-1.8C221.69,6.38,221.1,7.07,221.1,8.28Z" transform="translate(-3.93 -3.53)"/><path d="M226.63,3.53h.94V4.61h-.94Zm0,2.24h.94v5h-.94Z" transform="translate(-3.93 -3.53)"/><path d="M228.53,5.77h.93V4.3h.94V5.77h1.2v.7h-1.2V9.39c0,.48.13.73.62.73a2.74,2.74,0,0,0,.48,0v.65a3.17,3.17,0,0,1-.82.09,1.07,1.07,0,0,1-1.22-1.23V6.47h-.93Z" transform="translate(-3.93 -3.53)"/><path d="M277.42,128.58l-.8,2h-1l2.65-6.84h1.22l2.77,6.84h-1l-.83-2Zm2.72-.78c-.71-1.8-1.1-2.75-1.26-3.27h0c-.18.58-.62,1.73-1.19,3.27Z" transform="translate(-3.93 -3.53)"/><path d="M284.24,130v2.58h-.93v-5.73c0-.41,0-.83,0-1.22h.91c0,.17,0,.47,0,.79a1.91,1.91,0,0,1,1.78-.9,2.22,2.22,0,0,1,2.17,2.48c0,1.78-1.05,2.73-2.36,2.73A1.7,1.7,0,0,1,284.24,130Zm3-2c0-1.06-.52-1.78-1.45-1.78-1.13,0-1.57.65-1.57,1.87s.36,1.89,1.5,1.89S287.22,129.27,287.22,128Z" transform="translate(-3.93 -3.53)"/><path d="M290.35,130v2.58h-.93v-5.73c0-.41,0-.83,0-1.22h.91c0,.17,0,.47,0,.79a1.9,1.9,0,0,1,1.78-.9A2.22,2.22,0,0,1,294.3,128c0,1.78-1.05,2.73-2.37,2.73A1.69,1.69,0,0,1,290.35,130Zm3-2c0-1.06-.52-1.78-1.45-1.78-1.13,0-1.57.65-1.57,1.87s.36,1.89,1.5,1.89S293.33,129.27,293.33,128Z" transform="translate(-3.93 -3.53)"/><path d="M295.52,130.63v-7.22h.94v7.22Z" transform="translate(-3.93 -3.53)"/><path d="M298.06,123.41H299v1.08h-.94Zm0,2.23H299v5h-.94Z" transform="translate(-3.93 -3.53)"/><path d="M304.89,129.1a2.11,2.11,0,0,1-2.24,1.64,2.32,2.32,0,0,1-2.43-2.58,2.44,2.44,0,0,1,2.49-2.63,2,2,0,0,1,2.18,1.66H304a1.17,1.17,0,0,0-1.26-.94c-1,0-1.51.75-1.51,1.88s.53,1.9,1.47,1.9a1.27,1.27,0,0,0,1.3-.93Z" transform="translate(-3.93 -3.53)"/><path d="M310.1,129.54a7.37,7.37,0,0,0,.08,1.09h-.9a3,3,0,0,1-.09-.66,1.72,1.72,0,0,1-1.68.77c-1.28,0-1.82-.76-1.82-1.52,0-1.11.95-1.62,2.56-1.62h.93v-.42c0-.44-.15-1-1.17-1s-1.06.41-1.16.8h-.91c.08-.68.54-1.48,2.1-1.47,1.33,0,2.06.5,2.06,1.63Zm-.91-1.34h-.88c-1.08,0-1.66.27-1.66,1,0,.52.38.9,1.05.9,1.31,0,1.49-.81,1.49-1.71Z" transform="translate(-3.93 -3.53)"/><path d="M311,125.64h.94v-1.47h.94v1.47H314v.71h-1.2v2.91c0,.49.13.74.62.74a2.63,2.63,0,0,0,.47,0v.64a2.69,2.69,0,0,1-.81.1,1.07,1.07,0,0,1-1.22-1.23v-3.12H311Z" transform="translate(-3.93 -3.53)"/><path d="M315,123.41H316v1.08H315Zm0,2.23H316v5H315Z" transform="translate(-3.93 -3.53)"/><path d="M322.23,128.13a2.44,2.44,0,0,1-2.55,2.61,2.41,2.41,0,0,1-2.5-2.6,2.44,2.44,0,0,1,2.56-2.61A2.4,2.4,0,0,1,322.23,128.13Zm-4.09,0c0,1.09.6,1.89,1.57,1.89s1.56-.76,1.56-1.89-.56-1.89-1.58-1.89S318.14,127,318.14,128.14Z" transform="translate(-3.93 -3.53)"/><path d="M323.46,126.9c0-.43,0-.87,0-1.26h.91a7.5,7.5,0,0,1,0,.82,1.71,1.71,0,0,1,1.71-.93,1.69,1.69,0,0,1,1.81,1.89v3.21H327v-3.1c0-.75-.33-1.26-1.15-1.26-1,0-1.44.72-1.44,1.72v2.64h-.94Z" transform="translate(-3.93 -3.53)"/><path d="M336.75,123.41v5.81c0,.47,0,.93,0,1.41h-.9c0-.14,0-.52-.05-.71a1.74,1.74,0,0,1-1.71.82,2.26,2.26,0,0,1-2.25-2.55,2.41,2.41,0,0,1,2.43-2.66c1,0,1.39.35,1.53.63v-2.75Zm-3.93,4.75c0,1.2.63,1.85,1.48,1.85,1.27,0,1.55-.85,1.55-1.95s-.25-1.8-1.48-1.8C333.42,126.26,332.82,127,332.82,128.16Z" transform="translate(-3.93 -3.53)"/><path d="M338.91,128.29c0,1,.56,1.74,1.49,1.74a1.25,1.25,0,0,0,1.31-.78h.94a2.17,2.17,0,0,1-2.28,1.49,2.33,2.33,0,0,1-2.41-2.55,2.4,2.4,0,0,1,2.47-2.66,2.19,2.19,0,0,1,2.32,2.35c0,.15,0,.28,0,.41Zm2.89-.6a1.35,1.35,0,0,0-1.39-1.48c-1,0-1.37.61-1.47,1.48Z" transform="translate(-3.93 -3.53)"/><path d="M346.62,130.63v-7.22h.94v7.22Z" transform="translate(-3.93 -3.53)"/><path d="M353.14,129.54a7.37,7.37,0,0,0,.08,1.09h-.9a3,3,0,0,1-.09-.66,1.72,1.72,0,0,1-1.68.77c-1.28,0-1.82-.76-1.82-1.52,0-1.11.95-1.62,2.56-1.62h.93v-.42c0-.44-.15-1-1.17-1s-1.06.41-1.16.8H349c.08-.68.54-1.48,2.1-1.47,1.33,0,2.06.5,2.06,1.63Zm-.91-1.34h-.88c-1.08,0-1.66.27-1.66,1,0,.52.38.9,1.05.9,1.31,0,1.49-.81,1.49-1.71Z" transform="translate(-3.93 -3.53)"/><path d="M358.63,127.62v3h-1v-6.84h2.92c1.53,0,2.34.76,2.34,1.83a1.58,1.58,0,0,1-1.27,1.61c.61.15,1.14.56,1.14,1.75v.29a4.65,4.65,0,0,0,.1,1.36h-1a4.46,4.46,0,0,1-.13-1.47V129c0-1-.3-1.39-1.63-1.39Zm0-.77h1.62c1.14,0,1.64-.39,1.64-1.16s-.51-1.14-1.52-1.14h-1.74Z" transform="translate(-3.93 -3.53)"/><path d="M369,128.13a2.44,2.44,0,0,1-2.55,2.61,2.41,2.41,0,0,1-2.5-2.6,2.44,2.44,0,0,1,2.56-2.61A2.39,2.39,0,0,1,369,128.13Zm-4.09,0c0,1.09.6,1.89,1.58,1.89s1.55-.76,1.55-1.89-.56-1.89-1.58-1.89S365,127,365,128.14Z" transform="translate(-3.93 -3.53)"/><path d="M374.3,129.54a7.37,7.37,0,0,0,.08,1.09h-.9a3,3,0,0,1-.09-.66,1.71,1.71,0,0,1-1.67.77c-1.29,0-1.83-.76-1.83-1.52,0-1.11.95-1.62,2.56-1.62h.93v-.42c0-.44-.15-1-1.17-1s-1.06.41-1.16.8h-.9c.07-.68.53-1.48,2.09-1.47,1.33,0,2.06.5,2.06,1.63Zm-.91-1.34h-.88c-1.08,0-1.66.27-1.66,1,0,.52.38.9,1,.9,1.31,0,1.49-.81,1.49-1.71Z" transform="translate(-3.93 -3.53)"/><path d="M380.43,123.41v5.81c0,.47,0,.93,0,1.41h-.9c0-.14,0-.52,0-.71a1.74,1.74,0,0,1-1.71.82,2.27,2.27,0,0,1-2.26-2.55,2.42,2.42,0,0,1,2.43-2.66c1,0,1.39.35,1.54.63v-2.75Zm-3.92,4.75c0,1.2.62,1.85,1.47,1.85,1.27,0,1.55-.85,1.55-1.95s-.25-1.8-1.47-1.8C377.1,126.26,376.51,127,376.51,128.16Z" transform="translate(-3.93 -3.53)"/><path d="M382,126.93c0-.43,0-.88,0-1.29h.91c0,.15,0,.52,0,.77a1.69,1.69,0,0,1,1.58-.88,1.5,1.5,0,0,1,1.51.89,1.88,1.88,0,0,1,1.73-.89,1.61,1.61,0,0,1,1.71,1.82v3.28h-.92v-3.17c0-.58-.23-1.19-1.08-1.19s-1.26.61-1.26,1.5v2.86h-.92v-3.15c0-.64-.2-1.21-1.05-1.21s-1.3.65-1.3,1.6v2.76H382Z" transform="translate(-3.93 -3.53)"/><path d="M395.08,129.54a7.76,7.76,0,0,0,.07,1.09h-.89a2.13,2.13,0,0,1-.09-.66,1.73,1.73,0,0,1-1.68.77c-1.28,0-1.83-.76-1.83-1.52,0-1.11,1-1.62,2.57-1.62h.93v-.42c0-.44-.16-1-1.17-1s-1.06.41-1.16.8h-.91c.07-.68.54-1.48,2.1-1.47,1.32,0,2.06.5,2.06,1.63Zm-.92-1.34h-.88c-1.08,0-1.66.27-1.66,1,0,.52.39.9,1.06.9,1.31,0,1.48-.81,1.48-1.71Z" transform="translate(-3.93 -3.53)"/><path d="M397.64,130v2.58h-.94v-5.73c0-.41,0-.83,0-1.22h.91a7.42,7.42,0,0,1,0,.79,1.88,1.88,0,0,1,1.77-.9,2.22,2.22,0,0,1,2.17,2.48c0,1.78-1.05,2.73-2.36,2.73A1.67,1.67,0,0,1,397.64,130Zm3-2c0-1.06-.52-1.78-1.45-1.78-1.12,0-1.57.65-1.57,1.87s.37,1.89,1.5,1.89S400.61,129.27,400.61,128Z" transform="translate(-3.93 -3.53)"/></svg>