<svg id="Calque_1" data-name="Calque 1" xmlns="http://www.w3.org/2000/svg" viewBox="0 0 678.1 228.4"><defs><style>.cls-1{fill:#fff;stroke:#d9d9d9;stroke-miterlimit:10;stroke-width:3px;}.cls-2{fill:#d9d9d9;}</style></defs><ellipse class="cls-1" cx="298.7" cy="132.93" rx="96.22" ry="93.97"/><polygon class="cls-2" points="314.3 40.07 290.94 26.9 290.94 53.25 314.3 40.07"/><polygon class="cls-2" points="402.48 167.54 378.11 156.23 380.27 182.5 402.48 167.54"/><polygon class="cls-2" points="228.46 174.55 206.28 159.56 204.07 185.82 228.46 174.55"/><path d="M11,182.87c.41,1.67,1.65,2.57,3.85,2.57,2.37,0,3.31-1,3.31-2.34s-.75-2.17-3.79-2.85c-3.58-.8-4.82-1.92-4.82-3.88s1.66-3.75,5.05-3.75c3.61,0,5.1,1.92,5.3,3.75H17.84c-.27-1.24-1.11-2.26-3.32-2.26-1.85,0-2.89.76-2.89,2.09s.86,1.82,3.52,2.41c4.32,1,5.09,2.51,5.09,4.3,0,2.25-1.82,4-5.53,4s-5.45-1.91-5.77-4Z" transform="translate(-8.94 -11.07)"/><path d="M31.58,183.78c0,1,0,2.36,0,3H29.75a12.59,12.59,0,0,1-.08-1.52A3.34,3.34,0,0,1,26.32,187c-1.86,0-3.65-.85-3.65-3.71V176.6h1.9v6.29c0,1.34.45,2.56,2.29,2.56,2,0,2.81-1,2.81-3.56V176.6h1.91Z" transform="translate(-8.94 -11.07)"/><path d="M34.85,172.05h1.91v2.19H34.85Zm0,4.55h1.91v10.14H34.85Z" transform="translate(-8.94 -11.07)"/><path d="M40.78,176.6c1.49,4.15,2.58,7.24,2.91,8.51h0c.27-1.13,1.45-4.17,3.11-8.51h1.94l-4.07,10.14h-2.1L38.73,176.6Z" transform="translate(-8.94 -11.07)"/><path d="M50.7,172.05h1.91v2.19H50.7Zm0,4.55h1.91v10.14H50.7Z" transform="translate(-8.94 -11.07)"/><path d="M74.91,177.92,71,183.14c-1.8,2.44-3.09,3.8-5.88,3.8s-4.31-1.88-4.31-3.67,1.09-3.07,4.1-4.5c2-1,3-1.64,3-2.93a1.94,1.94,0,0,0-3.87.06c0,.88.71,1.64,1.84,2.63l9.12,8.21h-2.6l-8.12-7.34c-1.22-1.08-2.06-2.05-2.06-3.41,0-1.79,1.37-3.37,3.81-3.37,2.25,0,3.66,1.46,3.66,3.2,0,1.54-1.08,2.5-3.79,3.88s-3.16,2.22-3.16,3.38a2.4,2.4,0,0,0,2.48,2.31c1.7,0,2.66-.64,4.57-3.28l3-4.19Z" transform="translate(-8.94 -11.07)"/><path d="M85.55,182.57l-1.64,4.17h-2l5.41-13.92h2.47l5.64,13.92H93.28l-1.68-4.17ZM91.08,181c-1.44-3.65-2.24-5.6-2.57-6.66h0c-.37,1.18-1.26,3.54-2.42,6.66Z" transform="translate(-8.94 -11.07)"/><path d="M106.67,172.05v11.82c0,1,0,1.89,0,2.87h-1.83a14.36,14.36,0,0,1-.1-1.44c-.54,1.06-1.66,1.68-3.48,1.68-2.84,0-4.58-2.11-4.58-5.21s1.88-5.41,4.94-5.41c2,0,2.83.72,3.12,1.29v-5.6Zm-8,9.67c0,2.45,1.27,3.77,3,3.77,2.59,0,3.16-1.74,3.16-4s-.52-3.68-3-3.68C99.88,177.84,98.68,179.26,98.68,181.72Z" transform="translate(-8.94 -11.07)"/><path d="M118,184.53a13.91,13.91,0,0,0,.15,2.21h-1.83a5.65,5.65,0,0,1-.18-1.33c-.38.68-1.27,1.57-3.41,1.57-2.61,0-3.72-1.56-3.72-3.1,0-2.26,1.94-3.3,5.22-3.3h1.89v-.86c0-.9-.31-2-2.38-2-1.85,0-2.16.84-2.36,1.63h-1.85c.15-1.4,1.09-3,4.27-3,2.7,0,4.2,1,4.2,3.32Zm-1.87-2.73h-1.79c-2.2,0-3.38.55-3.38,2,0,1.06.79,1.83,2.15,1.83,2.66,0,3-1.65,3-3.49Z" transform="translate(-8.94 -11.07)"/><path d="M123.22,185.49v5.24h-1.9V179.07c0-.83,0-1.69,0-2.47h1.86c0,.33.06,1,.06,1.59a3.89,3.89,0,0,1,3.62-1.83c2.55,0,4.41,2,4.41,5,0,3.62-2.13,5.57-4.81,5.57A3.47,3.47,0,0,1,123.22,185.49Zm6.07-4c0-2.15-1.07-3.62-3-3.62-2.29,0-3.2,1.32-3.2,3.79s.75,3.85,3.06,3.85C128.21,185.5,129.29,184,129.29,181.48Z" transform="translate(-8.94 -11.07)"/><path d="M132.31,176.6h1.91v-3h1.91v3h2.44V178h-2.44V184c0,1,.26,1.49,1.26,1.49a4.09,4.09,0,0,0,1-.09v1.32a5.57,5.57,0,0,1-1.65.19c-1.72,0-2.48-.82-2.48-2.5V178h-1.91Z" transform="translate(-8.94 -11.07)"/><path d="M148.87,184.53a15.26,15.26,0,0,0,.15,2.21H147.2a4.74,4.74,0,0,1-.18-1.33c-.39.68-1.27,1.57-3.42,1.57-2.6,0-3.72-1.56-3.72-3.1,0-2.26,1.94-3.3,5.23-3.3H147v-.86c0-.9-.31-2-2.38-2-1.84,0-2.16.84-2.36,1.63h-1.84c.14-1.4,1.08-3,4.26-3,2.71,0,4.2,1,4.2,3.32ZM147,181.8h-1.79c-2.21,0-3.39.55-3.39,2,0,1.06.79,1.83,2.16,1.83,2.66,0,3-1.65,3-3.49Z" transform="translate(-8.94 -11.07)"/><path d="M150.59,176.6h1.92v-3h1.91v3h2.44V178h-2.44V184c0,1,.26,1.49,1.26,1.49a4.09,4.09,0,0,0,1-.09v1.32a5.57,5.57,0,0,1-1.65.19c-1.72,0-2.48-.82-2.48-2.5V178h-1.92Z" transform="translate(-8.94 -11.07)"/><path d="M158.88,172.05h1.91v2.19h-1.91Zm0,4.55h1.91v10.14h-1.91Z" transform="translate(-8.94 -11.07)"/><path d="M173.55,181.65a5,5,0,0,1-5.21,5.33c-3.16,0-5.08-2.25-5.08-5.3a5,5,0,0,1,5.21-5.32C171.54,176.36,173.55,178.47,173.55,181.65Zm-8.32,0c0,2.22,1.21,3.85,3.19,3.85s3.16-1.54,3.16-3.84-1.13-3.86-3.2-3.86S165.23,179.35,165.23,181.67Z" transform="translate(-8.94 -11.07)"/><path d="M176,179.15c0-.88,0-1.77,0-2.55h1.86a15.36,15.36,0,0,1,.07,1.66,3.5,3.5,0,0,1,3.48-1.9c2.07,0,3.7,1.16,3.7,3.86v6.52h-1.91v-6.3c0-1.53-.65-2.56-2.34-2.56-2.09,0-2.93,1.45-2.93,3.49v5.37H176Z" transform="translate(-8.94 -11.07)"/><path d="M225.07,19.63v6.13h-2V11.84H229c3.12,0,4.78,1.55,4.78,3.72a3.24,3.24,0,0,1-2.58,3.28c1.23.3,2.31,1.15,2.31,3.57V23a8.84,8.84,0,0,0,.21,2.76h-2a8.66,8.66,0,0,1-.26-3v-.3c0-2-.61-2.84-3.33-2.84Zm0-1.56h3.3c2.32,0,3.34-.79,3.34-2.36s-1.05-2.32-3.11-2.32h-3.53Z" transform="translate(-8.94 -11.07)"/><path d="M237.89,21c0,2.07,1.15,3.53,3,3.53A2.53,2.53,0,0,0,243.58,23h1.93a4.45,4.45,0,0,1-4.65,3c-3.48,0-4.9-2.59-4.9-5.21,0-3,1.66-5.42,5-5.42,3.57,0,4.74,2.63,4.74,4.79a7.49,7.49,0,0,1,0,.84Zm5.89-1.23a2.74,2.74,0,0,0-2.83-3c-1.94,0-2.8,1.24-3,3Z" transform="translate(-8.94 -11.07)"/><path d="M257,22.65A4.32,4.32,0,0,1,252.44,26c-3,0-4.93-2-4.93-5.26,0-2.87,1.77-5.37,5.07-5.37s4.29,2.09,4.43,3.4h-1.89a2.42,2.42,0,0,0-2.58-1.93c-2,0-3.06,1.54-3.06,3.84s1.07,3.86,3,3.86a2.59,2.59,0,0,0,2.64-1.89Z" transform="translate(-8.94 -11.07)"/><path d="M261.2,11.07v6a3.77,3.77,0,0,1,3.45-1.74c1.77,0,3.72.89,3.72,3.91v6.48h-1.9V19.58c0-1.73-.79-2.69-2.4-2.69-2,0-2.87,1.21-2.87,3.32v5.55h-1.91V11.07Z" transform="translate(-8.94 -11.07)"/><path d="M272.77,21c0,2.07,1.15,3.53,3,3.53A2.54,2.54,0,0,0,278.46,23h1.92c-.43,1.3-1.62,3-4.65,3-3.47,0-4.89-2.59-4.89-5.21,0-3,1.66-5.42,5-5.42,3.56,0,4.73,2.63,4.73,4.79a7.49,7.49,0,0,1,0,.84Zm5.89-1.23a2.75,2.75,0,0,0-2.83-3c-1.95,0-2.8,1.24-3,3Z" transform="translate(-8.94 -11.07)"/><path d="M283.05,18.37c0-1.42,0-2.22,0-2.76h1.87c0,.29.06,1.08.06,2.07a3.93,3.93,0,0,1,3.72-2.31v1.75c-2.27.06-3.72,1.15-3.72,3.71v4.93h-1.91Z" transform="translate(-8.94 -11.07)"/><path d="M299.27,22.65A4.31,4.31,0,0,1,294.7,26c-3,0-4.92-2-4.92-5.26,0-2.87,1.76-5.37,5.06-5.37s4.29,2.09,4.43,3.4h-1.89a2.41,2.41,0,0,0-2.57-1.93c-2,0-3.07,1.54-3.07,3.84s1.08,3.86,3,3.86a2.58,2.58,0,0,0,2.64-1.89Z" transform="translate(-8.94 -11.07)"/><path d="M303.46,11.07v6a3.8,3.8,0,0,1,3.46-1.74c1.77,0,3.72.89,3.72,3.91v6.48h-1.9V19.58c0-1.73-.8-2.69-2.41-2.69-2,0-2.87,1.21-2.87,3.32v5.55h-1.9V11.07Z" transform="translate(-8.94 -11.07)"/><path d="M315,21c0,2.07,1.14,3.53,3,3.53A2.55,2.55,0,0,0,320.73,23h1.92c-.43,1.3-1.62,3-4.65,3-3.48,0-4.89-2.59-4.89-5.21,0-3,1.65-5.42,5-5.42,3.57,0,4.74,2.63,4.74,4.79a7.49,7.49,0,0,1,0,.84Zm5.88-1.23a2.74,2.74,0,0,0-2.82-3c-2,0-2.8,1.24-3,3Z" transform="translate(-8.94 -11.07)"/><path d="M344.26,16.93l-3.88,5.23c-1.81,2.43-3.09,3.8-5.88,3.8s-4.32-1.88-4.32-3.68,1.1-3.06,4.11-4.49c1.94-1,3-1.64,3-2.93a1.94,1.94,0,0,0-3.87.06c0,.87.71,1.64,1.84,2.63l9.12,8.21h-2.59l-8.13-7.34c-1.21-1.08-2.05-2.05-2.05-3.41,0-1.79,1.36-3.37,3.8-3.37,2.25,0,3.67,1.46,3.67,3.19,0,1.55-1.09,2.51-3.79,3.88s-3.16,2.23-3.16,3.39a2.39,2.39,0,0,0,2.47,2.3c1.7,0,2.66-.63,4.57-3.27l3-4.2Z" transform="translate(-8.94 -11.07)"/><path d="M354.89,21.58l-1.63,4.18h-2l5.4-13.92h2.48l5.63,13.92h-2.14l-1.69-4.18ZM360.43,20c-1.45-3.66-2.24-5.6-2.57-6.66h0c-.37,1.18-1.26,3.53-2.43,6.66Z" transform="translate(-8.94 -11.07)"/><path d="M375.43,22.8c0,1,0,2.36,0,3h-1.86c0-.27-.06-.89-.07-1.52A3.34,3.34,0,0,1,370.17,26c-1.86,0-3.65-.85-3.65-3.71V15.61h1.89v6.3c0,1.33.46,2.56,2.29,2.56,2,0,2.82-1,2.82-3.57V15.61h1.91Z" transform="translate(-8.94 -11.07)"/><path d="M387.92,11.07V22.89c0,.95,0,1.89,0,2.87H386.1c-.05-.27-.08-1.05-.09-1.44-.55,1.06-1.67,1.68-3.48,1.68-2.84,0-4.59-2.12-4.59-5.21s1.89-5.42,4.94-5.42c2,0,2.83.73,3.13,1.3v-5.6Zm-8,9.67c0,2.45,1.27,3.77,3,3.77,2.58,0,3.15-1.75,3.15-4s-.51-3.68-3-3.68C381.13,16.86,379.92,18.28,379.92,20.74Z" transform="translate(-8.94 -11.07)"/><path d="M391.17,11.07h1.91v2.19h-1.91Zm0,4.54h1.91V25.76h-1.91Z" transform="translate(-8.94 -11.07)"/><path d="M395,15.61h1.92v-3h1.9v3h2.44V17h-2.44V23c0,1,.27,1.5,1.27,1.5a4.7,4.7,0,0,0,1-.09v1.32a5.61,5.61,0,0,1-1.65.19c-1.72,0-2.48-.82-2.48-2.5V17H395Z" transform="translate(-8.94 -11.07)"/><path d="M434.45,180.2l-1.64,4.18h-2l5.4-13.92h2.48l5.64,13.92h-2.15l-1.68-4.18Zm5.53-1.58c-1.44-3.66-2.24-5.6-2.57-6.66h0c-.37,1.18-1.26,3.53-2.42,6.66Z" transform="translate(-8.94 -11.07)"/><path d="M448.32,183.13v5.24h-1.9V176.71c0-.83,0-1.69,0-2.48h1.85a13.31,13.31,0,0,1,.07,1.6,3.89,3.89,0,0,1,3.61-1.83c2.56,0,4.42,2,4.42,5.05,0,3.62-2.13,5.57-4.81,5.57A3.46,3.46,0,0,1,448.32,183.13Zm6.06-4c0-2.16-1.07-3.63-2.95-3.63-2.29,0-3.2,1.33-3.2,3.8s.74,3.85,3,3.85C453.3,183.14,454.38,181.61,454.38,179.12Z" transform="translate(-8.94 -11.07)"/><path d="M460.74,183.13v5.24h-1.9V176.71c0-.83,0-1.69,0-2.48h1.86c0,.34.06,1,.06,1.6a3.89,3.89,0,0,1,3.62-1.83c2.55,0,4.41,2,4.41,5.05,0,3.62-2.13,5.57-4.81,5.57A3.47,3.47,0,0,1,460.74,183.13Zm6.07-4c0-2.16-1.07-3.63-3-3.63-2.29,0-3.2,1.33-3.2,3.8s.75,3.85,3.06,3.85C465.73,183.14,466.81,181.61,466.81,179.12Z" transform="translate(-8.94 -11.07)"/><path d="M471.27,184.38V169.69h1.91v14.69Z" transform="translate(-8.94 -11.07)"/><path d="M476.43,169.69h1.91v2.19h-1.91Zm0,4.54h1.91v10.15h-1.91Z" transform="translate(-8.94 -11.07)"/><path d="M490.33,181.28a4.32,4.32,0,0,1-4.57,3.34c-3.05,0-4.93-2-4.93-5.26,0-2.87,1.77-5.36,5.07-5.36s4.28,2.08,4.43,3.39h-1.9a2.4,2.4,0,0,0-2.57-1.93c-2,0-3.07,1.54-3.07,3.84s1.08,3.86,3,3.86a2.58,2.58,0,0,0,2.64-1.88Z" transform="translate(-8.94 -11.07)"/><path d="M500.93,182.17a15.26,15.26,0,0,0,.15,2.21h-1.82a4.74,4.74,0,0,1-.18-1.33c-.39.68-1.27,1.57-3.42,1.57-2.6,0-3.72-1.56-3.72-3.1,0-2.26,1.94-3.3,5.23-3.3h1.88v-.86c0-.9-.31-2-2.38-2-1.84,0-2.16.84-2.36,1.63h-1.84c.14-1.4,1.08-3,4.26-3,2.71,0,4.2,1,4.2,3.32Zm-1.86-2.74h-1.79c-2.21,0-3.39.56-3.39,2,0,1.06.79,1.83,2.16,1.83,2.66,0,3-1.65,3-3.49Z" transform="translate(-8.94 -11.07)"/><path d="M502.65,174.23h1.92v-3h1.91v3h2.44v1.43h-2.44v6c0,1,.26,1.49,1.26,1.49a4.7,4.7,0,0,0,1-.09v1.32a5.57,5.57,0,0,1-1.65.19c-1.72,0-2.48-.82-2.48-2.5v-6.36h-1.92Z" transform="translate(-8.94 -11.07)"/><path d="M510.94,169.69h1.91v2.19h-1.91Zm0,4.54h1.91v10.15h-1.91Z" transform="translate(-8.94 -11.07)"/><path d="M525.61,179.29a5,5,0,0,1-5.21,5.33c-3.16,0-5.08-2.25-5.08-5.3a5,5,0,0,1,5.21-5.32C523.6,174,525.61,176.1,525.61,179.29Zm-8.32,0c0,2.22,1.21,3.84,3.19,3.84s3.16-1.53,3.16-3.84-1.13-3.85-3.2-3.85S517.29,177,517.29,179.31Z" transform="translate(-8.94 -11.07)"/><path d="M528.1,176.79c0-.88,0-1.77,0-2.56h1.86a15.55,15.55,0,0,1,.07,1.67,3.5,3.5,0,0,1,3.48-1.9c2.07,0,3.7,1.16,3.7,3.86v6.52h-1.91v-6.3c0-1.53-.65-2.57-2.34-2.57-2.09,0-2.93,1.46-2.93,3.5v5.37H528.1Z" transform="translate(-8.94 -11.07)"/><path d="M555.14,169.69v11.82c0,1,0,1.89,0,2.87h-1.84a12.06,12.06,0,0,1-.09-1.44c-.55,1.06-1.67,1.68-3.48,1.68-2.84,0-4.59-2.11-4.59-5.21s1.88-5.41,4.94-5.41c2,0,2.83.72,3.13,1.29v-5.6Zm-8,9.67c0,2.45,1.27,3.77,3,3.77,2.58,0,3.15-1.75,3.15-4s-.51-3.68-3-3.68C548.36,175.48,547.15,176.9,547.15,179.36Z" transform="translate(-8.94 -11.07)"/><path d="M559.54,179.63c0,2.06,1.14,3.52,3,3.52a2.54,2.54,0,0,0,2.67-1.56h1.92c-.43,1.29-1.62,3-4.65,3-3.47,0-4.89-2.59-4.89-5.2,0-3,1.65-5.42,5-5.42a4.46,4.46,0,0,1,4.74,4.78,7.77,7.77,0,0,1,0,.85Zm5.88-1.24a2.73,2.73,0,0,0-2.82-3c-2,0-2.8,1.24-3,3Z" transform="translate(-8.94 -11.07)"/><path d="M575.22,184.38V169.69h1.91v14.69Z" transform="translate(-8.94 -11.07)"/><path d="M588.49,182.17a13.58,13.58,0,0,0,.16,2.21h-1.83a5.16,5.16,0,0,1-.18-1.33c-.39.68-1.27,1.57-3.42,1.57-2.6,0-3.71-1.56-3.71-3.1,0-2.26,1.93-3.3,5.22-3.3h1.89v-.86c0-.9-.32-2-2.39-2-1.84,0-2.15.84-2.35,1.63H580c.14-1.4,1.09-3,4.27-3,2.7,0,4.19,1,4.19,3.32Zm-1.86-2.74h-1.79c-2.2,0-3.38.56-3.38,2,0,1.06.78,1.83,2.15,1.83,2.66,0,3-1.65,3-3.49Z" transform="translate(-8.94 -11.07)"/><path d="M599.66,178.25v6.13h-2V170.46h5.93c3.11,0,4.78,1.55,4.78,3.72a3.24,3.24,0,0,1-2.59,3.28c1.24.3,2.31,1.15,2.31,3.57v.59a9.15,9.15,0,0,0,.21,2.76h-2a9,9,0,0,1-.25-3v-.3c0-2-.61-2.84-3.34-2.84Zm0-1.55H603c2.32,0,3.34-.8,3.34-2.37s-1-2.32-3.11-2.32h-3.53Z" transform="translate(-8.94 -11.07)"/><path d="M620.84,179.29a5,5,0,0,1-5.2,5.33c-3.17,0-5.09-2.25-5.09-5.3a5,5,0,0,1,5.21-5.32C618.83,174,620.84,176.1,620.84,179.29Zm-8.32,0c0,2.22,1.21,3.84,3.2,3.84s3.16-1.53,3.16-3.84-1.13-3.85-3.21-3.85S612.52,177,612.52,179.31Z" transform="translate(-8.94 -11.07)"/><path d="M631.54,182.17a13.58,13.58,0,0,0,.16,2.21h-1.83a5.16,5.16,0,0,1-.18-1.33c-.39.68-1.27,1.57-3.41,1.57-2.61,0-3.72-1.56-3.72-3.1,0-2.26,1.93-3.3,5.22-3.3h1.89v-.86c0-.9-.31-2-2.38-2-1.85,0-2.16.84-2.36,1.63h-1.85c.15-1.4,1.09-3,4.27-3,2.7,0,4.19,1,4.19,3.32Zm-1.86-2.74h-1.79c-2.2,0-3.38.56-3.38,2,0,1.06.79,1.83,2.15,1.83,2.66,0,3-1.65,3-3.49Z" transform="translate(-8.94 -11.07)"/><path d="M644,169.69v11.82c0,1,0,1.89,0,2.87H642.2a12.06,12.06,0,0,1-.09-1.44c-.55,1.06-1.67,1.68-3.48,1.68-2.84,0-4.59-2.11-4.59-5.21S635.92,174,639,174c2,0,2.83.72,3.13,1.29v-5.6Zm-8,9.67c0,2.45,1.27,3.77,3,3.77,2.58,0,3.15-1.75,3.15-4s-.51-3.68-3-3.68C637.23,175.48,636,176.9,636,179.36Z" transform="translate(-8.94 -11.07)"/><path d="M647.27,176.85c0-.87,0-1.79,0-2.62h1.84c0,.31.08,1.06.08,1.57a3.45,3.45,0,0,1,3.22-1.8,3,3,0,0,1,3.06,1.81A3.82,3.82,0,0,1,659,174c1.79,0,3.48,1,3.48,3.71v6.67h-1.87v-6.46c0-1.17-.46-2.41-2.19-2.41s-2.58,1.25-2.58,3v5.83h-1.87V178c0-1.3-.41-2.47-2.14-2.47s-2.63,1.32-2.63,3.25v5.62h-1.89Z" transform="translate(-8.94 -11.07)"/><path d="M673.81,182.17a15.26,15.26,0,0,0,.15,2.21h-1.82a4.74,4.74,0,0,1-.18-1.33c-.39.68-1.27,1.57-3.42,1.57-2.6,0-3.72-1.56-3.72-3.1,0-2.26,1.94-3.3,5.23-3.3h1.88v-.86c0-.9-.31-2-2.38-2-1.84,0-2.16.84-2.36,1.63h-1.84c.14-1.4,1.08-3,4.26-3,2.71,0,4.2,1,4.2,3.32ZM672,179.43h-1.79c-2.21,0-3.39.56-3.39,2,0,1.06.79,1.83,2.16,1.83,2.66,0,3-1.65,3-3.49Z" transform="translate(-8.94 -11.07)"/><path d="M679,183.13v5.24h-1.9V176.71c0-.83,0-1.69,0-2.48h1.85a15.81,15.81,0,0,1,.07,1.6,3.89,3.89,0,0,1,3.61-1.83c2.56,0,4.42,2,4.42,5.05,0,3.62-2.14,5.57-4.81,5.57A3.46,3.46,0,0,1,679,183.13Zm6.06-4c0-2.16-1.07-3.63-3-3.63-2.29,0-3.19,1.33-3.19,3.8s.74,3.85,3.05,3.85C684,183.14,685.07,181.61,685.07,179.12Z" transform="translate(-8.94 -11.07)"/></svg>