<svg id="Calque_1" data-name="Calque 1" xmlns="http://www.w3.org/2000/svg" viewBox="0 0 1859.78 659.71"><defs><style>.cls-1{fill:#fff;stroke:#d9d9d9;stroke-miterlimit:10;stroke-width:15px;}.cls-2{fill:#d9d9d9;}</style></defs><ellipse class="cls-1" cx="815.31" cy="385.83" rx="272.74" ry="266.38"/><polygon class="cls-2" points="859.54 122.63 793.31 85.28 793.31 159.98 859.54 122.63"/><polygon class="cls-2" points="1109.49 483.95 1040.42 451.89 1046.52 526.35 1109.49 483.95"/><polygon class="cls-2" points="616.21 503.82 553.32 461.31 547.07 535.76 616.21 503.82"/><path d="M28.49,506.72c1.13,5,4.56,7.71,10.61,7.71,6.51,0,9.09-3,9.09-7,0-4.19-2.06-6.54-10.43-8.56-9.84-2.39-13.25-5.76-13.25-11.63,0-6.2,4.57-11.25,13.89-11.25,9.94,0,14,5.74,14.59,11.23H47.36c-.75-3.72-3.07-6.77-9.16-6.77-5.08,0-7.94,2.29-7.94,6.27s2.36,5.47,9.67,7.24c11.91,2.89,14,7.53,14,12.89,0,6.73-5,12-15.2,12-10.5,0-15-5.73-15.88-12.14Z" transform="translate(-22.86 -18.04)"/><path d="M85.17,509.48c0,3,0,7.06.06,8.86H80.12a45.24,45.24,0,0,1-.2-4.56c-1.5,3.37-4.43,5.28-9.22,5.28-5.13,0-10.05-2.55-10.05-11.13v-20h5.21V506.8c0,4,1.26,7.69,6.3,7.69,5.6,0,7.76-3.1,7.76-10.71V487.92h5.25Z" transform="translate(-22.86 -18.04)"/><path d="M94.17,474.29h5.25v6.57H94.17Zm0,13.63h5.25v30.42H94.17Z" transform="translate(-22.86 -18.04)"/><path d="M110.49,487.92c4.09,12.44,7.09,21.74,8,25.54h.06c.74-3.39,4-12.5,8.54-25.54h5.35l-11.19,30.42h-5.79l-10.62-30.42Z" transform="translate(-22.86 -18.04)"/><path d="M137.79,474.29H143v6.57h-5.25Zm0,13.63H143v30.42h-5.25Z" transform="translate(-22.86 -18.04)"/><path d="M204.44,491.87l-10.68,15.67c-5,7.31-8.5,11.4-16.18,11.4s-11.88-5.63-11.88-11,3-9.19,11.31-13.48c5.35-3,8.37-4.92,8.37-8.8,0-2.87-1.73-5.61-5.22-5.61-3.23,0-5.42,2.11-5.42,5.81,0,2.61,1.94,4.92,5,7.87l25.1,24.63h-7.14l-22.36-22c-3.35-3.23-5.65-6.14-5.65-10.23,0-5.35,3.76-10.09,10.47-10.09,6.19,0,10.08,4.38,10.08,9.58,0,4.63-3,7.5-10.43,11.64-7.2,3.74-8.69,6.68-8.69,10.14a6.88,6.88,0,0,0,6.82,6.92c4.66,0,7.31-1.91,12.56-9.83l8.28-12.58Z" transform="translate(-22.86 -18.04)"/><path d="M233.71,505.82l-4.49,12.52h-5.51l14.87-41.74h6.81l15.51,41.74H255l-4.63-12.52ZM249,501.08c-4-11-6.16-16.8-7.07-20h-.06c-1,3.54-3.46,10.59-6.67,20Z" transform="translate(-22.86 -18.04)"/><path d="M291.85,474.29v35.46c0,2.85,0,5.66.06,8.59h-5a43.18,43.18,0,0,1-.27-4.32c-1.5,3.18-4.58,5-9.57,5-7.82,0-12.63-6.34-12.63-15.61s5.19-16.25,13.6-16.25c5.39,0,7.79,2.17,8.6,3.88V474.29Zm-22,29c0,7.34,3.49,11.32,8.27,11.32,7.11,0,8.68-5.25,8.68-11.92s-1.42-11-8.27-11C273.18,491.65,269.86,495.91,269.86,503.29Z" transform="translate(-22.86 -18.04)"/><path d="M323.11,511.71a47,47,0,0,0,.42,6.63h-5a16.79,16.79,0,0,1-.5-4c-1.06,2-3.49,4.7-9.4,4.7-7.17,0-10.23-4.67-10.23-9.3,0-6.79,5.33-9.89,14.37-9.89h5.19v-2.59c0-2.69-.85-6-6.55-6-5.08,0-5.94,2.52-6.49,4.89h-5.08c.4-4.19,3-9,11.74-9,7.43,0,11.55,3.05,11.55,10Zm-5.13-8.2h-4.92c-6.07,0-9.31,1.68-9.31,6,0,3.17,2.17,5.47,5.92,5.47,7.33,0,8.31-4.93,8.31-10.46Z" transform="translate(-22.86 -18.04)"/><path d="M337.42,514.58V530.3h-5.23v-35c0-2.48,0-5.06-.06-7.42h5.11c.12,1,.18,2.85.18,4.78,1.65-3.07,4.73-5.5,9.94-5.5,7,0,12.15,5.9,12.15,15.15,0,10.86-5.86,16.71-13.23,16.71C341.36,519.06,338.79,517,337.42,514.58Zm16.68-12c0-6.44-2.93-10.86-8.13-10.86-6.3,0-8.79,4-8.79,11.38,0,7.19,2,11.56,8.39,11.56C351.13,514.63,354.1,510.05,354.1,502.55Z" transform="translate(-22.86 -18.04)"/><path d="M362.42,487.92h5.27v-9h5.25v9h6.71v4.28h-6.71V510c0,3,.72,4.48,3.47,4.48a11.32,11.32,0,0,0,2.65-.26v4a14.21,14.21,0,0,1-4.55.56c-4.73,0-6.82-2.45-6.82-7.5V492.2h-5.27Z" transform="translate(-22.86 -18.04)"/><path d="M408,511.71a47,47,0,0,0,.42,6.63h-5a16.4,16.4,0,0,1-.49-4c-1.07,2-3.49,4.7-9.4,4.7-7.17,0-10.23-4.67-10.23-9.3,0-6.79,5.33-9.89,14.37-9.89h5.19v-2.59c0-2.69-.85-6-6.55-6-5.08,0-5.94,2.52-6.49,4.89h-5.08c.4-4.19,3-9,11.74-9,7.43,0,11.55,3.05,11.55,10Zm-5.13-8.2H398c-6.07,0-9.31,1.68-9.31,6,0,3.17,2.16,5.47,5.92,5.47,7.32,0,8.31-4.93,8.31-10.46Z" transform="translate(-22.86 -18.04)"/><path d="M412.76,487.92H418v-9h5.26v9H430v4.28h-6.71V510c0,3,.72,4.48,3.47,4.48a11.32,11.32,0,0,0,2.65-.26v4a14.21,14.21,0,0,1-4.55.56c-4.73,0-6.83-2.45-6.83-7.5V492.2h-5.26Z" transform="translate(-22.86 -18.04)"/><path d="M435.57,474.29h5.25v6.57h-5.25Zm0,13.63h5.25v30.42h-5.25Z" transform="translate(-22.86 -18.04)"/><path d="M475.94,503.07c0,8.77-5,16-14.33,16-8.72,0-14-6.74-14-15.89,0-9,5.17-16,14.33-16C470.4,487.2,475.94,493.52,475.94,503.07Zm-22.91.06c0,6.67,3.33,11.54,8.8,11.54s8.69-4.62,8.69-11.52-3.11-11.56-8.81-11.56S453,496.19,453,503.13Z" transform="translate(-22.86 -18.04)"/><path d="M482.81,495.58c0-2.64,0-5.3-.06-7.66h5.1a48.94,48.94,0,0,1,.21,5c1.21-2.62,3.69-5.72,9.58-5.72,5.7,0,10.16,3.49,10.16,11.58v19.56h-5.25V499.45c0-4.6-1.8-7.7-6.44-7.7-5.74,0-8.05,4.37-8.05,10.49v16.1h-5.25Z" transform="translate(-22.86 -18.04)"/><path d="M606,43.71V62.09h-5.49V20.35h16.32C625.44,20.35,630,25,630,31.52c0,5.42-3.11,8.71-7.11,9.81,3.4.92,6.37,3.46,6.37,10.71v1.79c0,2.87-.13,6.52.56,8.26h-5.38c-.76-1.8-.71-5.05-.71-9v-.89c0-5.94-1.68-8.52-9.16-8.52Zm0-4.66h9.08c6.38,0,9.18-2.4,9.18-7.09,0-4.44-2.89-6.95-8.56-6.95H606Z" transform="translate(-22.86 -18.04)"/><path d="M641.34,47.84c0,6.18,3.15,10.58,8.31,10.58,4.81,0,6.37-2.48,7.35-4.7h5.29c-1.2,3.89-4.46,9.09-12.8,9.09C639.93,62.81,636,55,636,47.21,636,38.16,640.58,31,649.83,31c9.81,0,13,7.87,13,14.36,0,.93,0,1.7-.08,2.53Zm16.19-3.71c-.06-5-2.58-9-7.78-9s-7.7,3.72-8.23,9Z" transform="translate(-22.86 -18.04)"/><path d="M693.94,52.78c-1.29,5.24-4.83,10-12.57,10-8.37,0-13.56-6-13.56-15.77,0-8.6,4.87-16.09,13.94-16.09,8.77,0,11.8,6.25,12.19,10.17h-5.2c-.75-3.1-2.69-5.78-7.09-5.78-5.39,0-8.43,4.61-8.43,11.52s2.95,11.58,8.23,11.58c3.81,0,6-2,7.27-5.66Z" transform="translate(-22.86 -18.04)"/><path d="M705.48,18V36.16C707,33.48,709.8,31,715,31c4.87,0,10.24,2.67,10.24,11.72V62.09H720V43.55c0-5.18-2.19-8-6.61-8-5.48,0-7.9,3.62-7.9,10V62.09h-5.25V18Z" transform="translate(-22.86 -18.04)"/><path d="M737.34,47.84c0,6.18,3.15,10.58,8.31,10.58,4.81,0,6.37-2.48,7.35-4.7h5.29c-1.2,3.89-4.46,9.09-12.8,9.09C735.92,62.81,732,55,732,47.21,732,38.16,736.58,31,745.83,31c9.81,0,13,7.87,13,14.36,0,.93,0,1.7-.08,2.53Zm16.19-3.71c-.06-5-2.58-9-7.78-9s-7.7,3.72-8.23,9Z" transform="translate(-22.86 -18.04)"/><path d="M765.63,39.93c0-4.25,0-6.64-.06-8.26h5.15c.08.85.16,3.24.16,6.21,1.59-4.12,5.22-6.78,10.25-6.93v5.24c-6.24.18-10.25,3.44-10.25,11.13V62.09h-5.25Z" transform="translate(-22.86 -18.04)"/><path d="M810.28,52.78c-1.29,5.24-4.83,10-12.57,10-8.37,0-13.56-6-13.56-15.77,0-8.6,4.86-16.09,13.94-16.09,8.77,0,11.8,6.25,12.19,10.17h-5.2c-.76-3.1-2.7-5.78-7.09-5.78-5.39,0-8.43,4.61-8.43,11.52s3,11.58,8.23,11.58c3.81,0,6-2,7.26-5.66Z" transform="translate(-22.86 -18.04)"/><path d="M821.82,18V36.16c1.55-2.68,4.32-5.21,9.5-5.21,4.87,0,10.24,2.67,10.24,11.72V62.09h-5.23V43.55c0-5.18-2.19-8-6.61-8-5.48,0-7.9,3.62-7.9,10V62.09h-5.25V18Z" transform="translate(-22.86 -18.04)"/><path d="M853.67,47.84c0,6.18,3.16,10.58,8.32,10.58,4.81,0,6.37-2.48,7.35-4.7h5.29c-1.2,3.89-4.46,9.09-12.8,9.09-9.57,0-13.47-7.77-13.47-15.6,0-9.05,4.56-16.26,13.81-16.26,9.81,0,13,7.87,13,14.36,0,.93,0,1.7-.08,2.53Zm16.2-3.71c-.06-5-2.58-9-7.78-9-5.35,0-7.7,3.72-8.24,9Z" transform="translate(-22.86 -18.04)"/><path d="M934.09,35.62,923.42,51.29c-5,7.31-8.51,11.4-16.18,11.4-7.82,0-11.88-5.63-11.88-11s3-9.19,11.3-13.48c5.36-3,8.38-4.92,8.38-8.8,0-2.87-1.74-5.61-5.22-5.61-3.23,0-5.43,2.11-5.43,5.81,0,2.61,2,4.92,5.06,7.87l25.09,24.63h-7.13l-22.36-22c-3.35-3.23-5.65-6.13-5.65-10.22,0-5.36,3.75-10.1,10.47-10.1,6.19,0,10.08,4.38,10.08,9.58,0,4.63-3,7.5-10.43,11.64-7.21,3.74-8.69,6.68-8.69,10.14A6.87,6.87,0,0,0,907.64,58c4.67,0,7.32-1.91,12.57-9.83l8.28-12.58Z" transform="translate(-22.86 -18.04)"/><path d="M963.37,49.57l-4.49,12.52h-5.51l14.87-41.74h6.81l15.51,41.74h-5.9L980,49.57Zm15.24-4.74c-4-11-6.17-16.8-7.07-20h-.06c-1,3.54-3.47,10.59-6.67,20Z" transform="translate(-22.86 -18.04)"/><path d="M1019.9,53.23c0,3,0,7.06.06,8.86h-5.11a45.24,45.24,0,0,1-.2-4.56c-1.49,3.37-4.43,5.28-9.21,5.28-5.13,0-10.06-2.55-10.06-11.13v-20h5.22V50.55c0,4,1.25,7.69,6.3,7.69,5.59,0,7.75-3.1,7.75-10.71V31.67h5.25Z" transform="translate(-22.86 -18.04)"/><path d="M1054.27,18V53.5c0,2.85,0,5.66.06,8.59h-5c-.14-.8-.24-3.13-.26-4.32-1.5,3.18-4.58,5-9.57,5-7.82,0-12.63-6.34-12.63-15.61S1032,31,1040.42,31c5.38,0,7.78,2.17,8.6,3.88V18Zm-22,29c0,7.34,3.5,11.32,8.28,11.32,7.11,0,8.67-5.25,8.67-11.92s-1.41-11-8.26-11C1035.59,35.4,1032.27,39.66,1032.27,47Z" transform="translate(-22.86 -18.04)"/><path d="M1063.23,18h5.25v6.57h-5.25Zm0,13.63h5.25V62.09h-5.25Z" transform="translate(-22.86 -18.04)"/><path d="M1073.84,31.67h5.26v-9h5.25v9h6.72V36h-6.72V53.77c0,3,.72,4.48,3.48,4.48a11.32,11.32,0,0,0,2.65-.26v4a14,14,0,0,1-4.55.56c-4.73,0-6.83-2.45-6.83-7.5V36h-5.26Z" transform="translate(-22.86 -18.04)"/><path d="M1187.39,505.82l-4.49,12.52h-5.51l14.87-41.74h6.81l15.51,41.74h-5.9l-4.63-12.52Zm15.24-4.74c-4-11-6.17-16.8-7.07-20h-.06c-1,3.54-3.47,10.59-6.67,20Z" transform="translate(-22.86 -18.04)"/><path d="M1225.57,514.58V530.3h-5.23v-35c0-2.48,0-5.06-.06-7.42h5.11c.12,1,.18,2.85.18,4.78,1.65-3.07,4.74-5.5,10-5.5,7,0,12.15,5.9,12.15,15.15,0,10.86-5.87,16.71-13.24,16.71C1229.52,519.06,1227,517,1225.57,514.58Zm16.69-12c0-6.44-2.94-10.86-8.14-10.86-6.3,0-8.79,4-8.79,11.38,0,7.19,2,11.56,8.4,11.56C1239.29,514.63,1242.26,510.05,1242.26,502.55Z" transform="translate(-22.86 -18.04)"/><path d="M1259.77,514.58V530.3h-5.23v-35c0-2.48,0-5.06-.06-7.42h5.11c.12,1,.18,2.85.18,4.78,1.65-3.07,4.74-5.5,10-5.5,7,0,12.15,5.9,12.15,15.15,0,10.86-5.87,16.71-13.24,16.71C1263.72,519.06,1261.15,517,1259.77,514.58Zm16.69-12c0-6.44-2.94-10.86-8.14-10.86-6.3,0-8.79,4-8.79,11.38,0,7.19,2,11.56,8.4,11.56C1273.49,514.63,1276.46,510.05,1276.46,502.55Z" transform="translate(-22.86 -18.04)"/><path d="M1288.74,518.34V474.29H1294v44.05Z" transform="translate(-22.86 -18.04)"/><path d="M1303,474.29h5.26v6.57H1303Zm0,13.63h5.26v30.42H1303Z" transform="translate(-22.86 -18.04)"/><path d="M1341.2,509c-1.3,5.24-4.84,10-12.58,10-8.37,0-13.56-6-13.56-15.77,0-8.6,4.87-16.09,13.94-16.09,8.77,0,11.8,6.25,12.2,10.17H1336c-.75-3.1-2.69-5.78-7.09-5.78-5.38,0-8.43,4.61-8.43,11.52s3,11.58,8.24,11.58c3.8,0,6-2,7.26-5.66Z" transform="translate(-22.86 -18.04)"/><path d="M1370.38,511.71a47,47,0,0,0,.42,6.63h-5a16.79,16.79,0,0,1-.5-4c-1.06,2-3.49,4.7-9.39,4.7-7.18,0-10.24-4.67-10.24-9.3,0-6.79,5.34-9.89,14.38-9.89h5.19v-2.59c0-2.69-.86-6-6.55-6-5.09,0-5.94,2.52-6.5,4.89h-5.08c.4-4.19,3-9,11.74-9,7.44,0,11.55,3.05,11.55,10Zm-5.12-8.2h-4.93c-6.06,0-9.31,1.68-9.31,6,0,3.17,2.17,5.47,5.92,5.47,7.33,0,8.32-4.93,8.32-10.46Z" transform="translate(-22.86 -18.04)"/><path d="M1375.14,487.92h5.26v-9h5.25v9h6.72v4.28h-6.72V510c0,3,.72,4.48,3.47,4.48a11.46,11.46,0,0,0,2.66-.26v4a14.25,14.25,0,0,1-4.55.56c-4.74,0-6.83-2.45-6.83-7.5V492.2h-5.26Z" transform="translate(-22.86 -18.04)"/><path d="M1397.94,474.29h5.25v6.57h-5.25Zm0,13.63h5.25v30.42h-5.25Z" transform="translate(-22.86 -18.04)"/><path d="M1438.31,503.07c0,8.77-5,16-14.32,16-8.72,0-14-6.74-14-15.89,0-9,5.16-16,14.33-16C1432.77,487.2,1438.31,493.52,1438.31,503.07Zm-22.9.06c0,6.67,3.33,11.54,8.79,11.54s8.7-4.62,8.7-11.52-3.11-11.56-8.82-11.56S1415.41,496.19,1415.41,503.13Z" transform="translate(-22.86 -18.04)"/><path d="M1445.18,495.58c0-2.64,0-5.3-.06-7.66h5.11c.14.89.22,4.09.2,5,1.22-2.62,3.7-5.72,9.58-5.72,5.7,0,10.17,3.49,10.17,11.58v19.56h-5.26V499.45c0-4.6-1.79-7.7-6.44-7.7-5.74,0-8,4.37-8,10.49v16.1h-5.25Z" transform="translate(-22.86 -18.04)"/><path d="M1519.61,474.29v35.46c0,2.85,0,5.66.05,8.59h-5a43.18,43.18,0,0,1-.27-4.32c-1.5,3.18-4.58,5-9.57,5-7.82,0-12.63-6.34-12.63-15.61s5.19-16.25,13.6-16.25c5.39,0,7.79,2.17,8.6,3.88V474.29Zm-22,29c0,7.34,3.49,11.32,8.27,11.32,7.11,0,8.68-5.25,8.68-11.92s-1.42-11-8.27-11C1500.93,491.65,1497.61,495.91,1497.61,503.29Z" transform="translate(-22.86 -18.04)"/><path d="M1531.71,504.09c0,6.18,3.15,10.58,8.31,10.58,4.81,0,6.37-2.48,7.35-4.71h5.29c-1.2,3.9-4.46,9.1-12.8,9.1-9.57,0-13.47-7.77-13.47-15.6,0-9,4.56-16.26,13.81-16.26,9.81,0,13,7.87,13,14.36,0,.93,0,1.7-.08,2.53Zm16.19-3.71c-.06-5-2.58-9-7.78-9s-7.7,3.72-8.23,9Z" transform="translate(-22.86 -18.04)"/><path d="M1574.88,518.34V474.29h5.25v44.05Z" transform="translate(-22.86 -18.04)"/><path d="M1611.4,511.71a47,47,0,0,0,.42,6.63h-5a16.93,16.93,0,0,1-.49-4c-1.06,2-3.49,4.7-9.4,4.7-7.17,0-10.23-4.67-10.23-9.3,0-6.79,5.33-9.89,14.37-9.89h5.19v-2.59c0-2.69-.85-6-6.55-6-5.08,0-5.94,2.52-6.49,4.89h-5.08c.4-4.19,3-9,11.74-9,7.43,0,11.55,3.05,11.55,10Zm-5.13-8.2h-4.92c-6.07,0-9.31,1.68-9.31,6,0,3.17,2.17,5.47,5.92,5.47,7.32,0,8.31-4.93,8.31-10.46Z" transform="translate(-22.86 -18.04)"/><path d="M1642.15,500v18.38h-5.49V476.6H1653c8.58,0,13.15,4.65,13.15,11.17,0,5.42-3.11,8.71-7.11,9.81,3.4.92,6.37,3.46,6.37,10.71v1.79c0,2.87-.14,6.51.56,8.26h-5.38c-.76-1.8-.71-5.05-.71-9v-.89c0-5.94-1.68-8.52-9.17-8.52Zm0-4.66h9.08c6.38,0,9.18-2.4,9.18-7.09,0-4.44-2.89-6.95-8.56-6.95h-9.7Z" transform="translate(-22.86 -18.04)"/><path d="M1700.45,503.07c0,8.77-5,16-14.33,16-8.72,0-14-6.74-14-15.89,0-9,5.17-16,14.33-16C1694.91,487.2,1700.45,493.52,1700.45,503.07Zm-22.91.06c0,6.67,3.33,11.54,8.8,11.54s8.69-4.62,8.69-11.52-3.11-11.56-8.81-11.56S1677.54,496.19,1677.54,503.13Z" transform="translate(-22.86 -18.04)"/><path d="M1729.9,511.71a47,47,0,0,0,.42,6.63h-5a16.4,16.4,0,0,1-.49-4c-1.07,2-3.49,4.7-9.4,4.7-7.17,0-10.23-4.67-10.23-9.3,0-6.79,5.33-9.89,14.37-9.89h5.19v-2.59c0-2.69-.86-6-6.55-6-5.08,0-5.94,2.52-6.49,4.89h-5.08c.4-4.19,3-9,11.74-9,7.43,0,11.55,3.05,11.55,10Zm-5.13-8.2h-4.92c-6.07,0-9.32,1.68-9.32,6,0,3.17,2.17,5.47,5.93,5.47,7.32,0,8.31-4.93,8.31-10.46Z" transform="translate(-22.86 -18.04)"/><path d="M1764.22,474.29v35.46c0,2.85,0,5.66.06,8.59h-5A40.39,40.39,0,0,1,1759,514c-1.5,3.18-4.58,5-9.57,5-7.82,0-12.63-6.34-12.63-15.61s5.19-16.25,13.6-16.25c5.39,0,7.79,2.17,8.6,3.88V474.29Zm-22,29c0,7.34,3.49,11.32,8.27,11.32,7.11,0,8.68-5.25,8.68-11.92s-1.42-11-8.27-11C1745.55,491.65,1742.23,495.91,1742.23,503.29Z" transform="translate(-22.86 -18.04)"/><path d="M1773.18,495.76c0-2.62,0-5.37-.06-7.84h5.06c.08.91.22,3.15.21,4.68a9.41,9.41,0,0,1,8.85-5.4c4.3,0,7.26,2.18,8.42,5.45a10.36,10.36,0,0,1,9.7-5.45c4.93,0,9.59,2.91,9.59,11.15v20h-5.17V499c0-3.53-1.27-7.25-6-7.25-5,0-7.1,3.75-7.1,9.14v17.47h-5.15V499.15c0-3.91-1.11-7.4-5.89-7.4s-7.23,3.95-7.23,9.75v16.84h-5.21Z" transform="translate(-22.86 -18.04)"/><path d="M1846.24,511.71a47,47,0,0,0,.42,6.63h-5a16.4,16.4,0,0,1-.49-4c-1.07,2-3.49,4.7-9.4,4.7-7.17,0-10.23-4.67-10.23-9.3,0-6.79,5.33-9.89,14.37-9.89h5.19v-2.59c0-2.69-.86-6-6.55-6-5.08,0-5.94,2.52-6.49,4.89H1823c.4-4.19,3-9,11.74-9,7.43,0,11.55,3.05,11.55,10Zm-5.13-8.2h-4.92c-6.07,0-9.32,1.68-9.32,6,0,3.17,2.17,5.47,5.93,5.47,7.32,0,8.31-4.93,8.31-10.46Z" transform="translate(-22.86 -18.04)"/><path d="M1860.55,514.58V530.3h-5.23v-35c0-2.48,0-5.06-.06-7.42h5.1a47.79,47.79,0,0,1,.19,4.78c1.65-3.07,4.73-5.5,9.94-5.5,7,0,12.15,5.9,12.15,15.15,0,10.86-5.87,16.71-13.23,16.71C1864.49,519.06,1861.92,517,1860.55,514.58Zm16.68-12c0-6.44-2.94-10.86-8.13-10.86-6.31,0-8.8,4-8.8,11.38,0,7.19,2,11.56,8.4,11.56C1874.26,514.63,1877.23,510.05,1877.23,502.55Z" transform="translate(-22.86 -18.04)"/></svg>