<svg id="Calque_1" data-name="Calque 1" xmlns="http://www.w3.org/2000/svg" xmlns:xlink="http://www.w3.org/1999/xlink" viewBox="0 0 1676.32 1025.28"><defs><style>.cls-1{fill:url(#Dégradé_sans_nom_8);}.cls-2{fill:url(#Dégradé_sans_nom_19);}.cls-3{fill:#fff;}</style><linearGradient id="Dégradé_sans_nom_8" x1="549.2" y1="179.16" x2="1361.03" y2="179.16" gradientUnits="userSpaceOnUse"><stop offset="0" stop-color="#0097ff"/><stop offset="0.26" stop-color="blue"/></linearGradient><linearGradient id="Dégradé_sans_nom_19" x1="299.37" y1="496.81" x2="1111.2" y2="496.81" gradientUnits="userSpaceOnUse"><stop offset="0.72" stop-color="#00b200"/><stop offset="1" stop-color="lime"/></linearGradient></defs><rect width="1676.32" height="1025.28"/><path class="cls-1" d="M1065.29,323.65,579.16,334.28l-30-1c2.36-43.71,14.11-140.27,86.69-211.95,52.4-51.75,108.35-81.3,202.28-83.78L1350.4,24.05H1361c-.28,20.34-3.78,130-93.46,215.81C1185.93,317.94,1088.42,323.05,1065.29,323.65Z"/><path class="cls-2" d="M815.46,641.29,329.33,651.92l-30-1c2.36-43.72,14.11-140.27,86.69-212,52.4-51.76,108.35-81.31,202.28-83.79l512.23-13.53h10.63c-.28,20.35-3.78,130.05-93.46,215.81C936.1,635.58,838.59,640.7,815.46,641.29Z"/><path d="M685.08,628.63c-3.54-1,26.14-114.09,32-133.13,4.43-14.47,9.43-30,9.43-30s5-15.52,10.24-31.15c21.32-63.94,32-95.91,47.8-134.84,22.25-54.75,32.65-69,37-74.66,1.12-1.47,26.45-34.08,59.2-50l2-1c18.56-8.55,36.25-11.64,54-12.57,39.84-2.07,106.43,4.91,106.13,8.32-.14,1.66-15-.42-40.6,1-2.87.15-6.47.38-10.7.74-7.36.62-16,1.6-27.77,3.49-14.14,2.29-21.22,3.39-30.09,5.64-9.85,2.5-22.52,5.79-37.56,13.69,0,0-5.76,3-11.15,6.51-31.21,20.18-50.7,63.08-50.7,63.08-43.43,93.76-78.76,185.07-78.76,185.07-25.29,64.16-28.06,69.27-37.31,95.11-2.15,6-9.42,24.91-24,62.77C687.18,625.13,685.73,628.81,685.08,628.63Z"/><path class="cls-3" d="M50.31,893.35c5.07,22.34,20.81,33,47,33,27,0,38.17-11.48,38.17-28.27,0-18.34-10.14-27.2-47.92-36.12-54.16-12.85-69.24-32.2-69.24-60.76,0-34.52,25.71-59.4,74.13-59.4,53.44,0,75,29.41,77.87,58.85H130.84c-2.71-14.79-11.36-29.18-39.46-29.18-20.74,0-32.89,8.89-32.89,25.44,0,16.25,9.85,22.76,44.54,30.93,60.27,14.36,72.61,37.14,72.61,65.65,0,36.56-27.49,62.78-81.22,62.78-52.79,0-78.86-27-83.63-62.93Z"/><path class="cls-3" d="M189.62,798.39h24.89V755.13H252v43.26h31.66v28.76H252v81.34c0,12.87,3.61,18.5,16.83,18.5a66.83,66.83,0,0,0,11-.75v26.39c-7.88,2.74-18.71,2.92-27,2.92-28.19,0-38.41-14.94-38.41-41.61V827.15H189.62Z"/><path class="cls-3" d="M309.49,840.47c0-17.52-.09-30.7-.3-42.08H346c.52,3.76,1,18.07,1,28.7,7.27-18.81,24.46-32,50.58-32.32v36.16C366.2,830.72,347,841.86,347,883.26v70.18h-37.5Z"/><path class="cls-3" d="M543.18,915.48c0,14.54,1.2,34,2.11,38H509.45c-1.2-3.2-2.11-11.1-2.29-16.88-5.55,9.26-16.71,20.5-45,20.5-37.11,0-52.82-24.32-52.82-48.21,0-35.08,28-51.22,73.63-51.22h23.59V846.9c0-11.91-4.11-24.72-27.08-24.72-20.73,0-24.84,9.43-27.1,21h-35.8c2.23-25.47,18-48.58,64.26-48.36,40.31.21,62.37,16.17,62.37,52.52Zm-36.56-34.31H486.57c-27.56,0-39.49,8.11-39.49,25.39,0,12.87,8.28,23.09,25,23.09,30.66,0,34.58-21,34.58-44.11Z"/><path class="cls-3" d="M565.18,798.39h24.88V755.13h37.5v43.26h31.67v28.76H627.56v81.34c0,12.87,3.62,18.5,16.83,18.5a66.76,66.76,0,0,0,11-.75v26.39c-7.87,2.74-18.71,2.92-26.95,2.92-28.18,0-38.41-14.94-38.41-41.61V827.15H565.18Z"/><path class="cls-3" d="M712.2,883.64c.09,23.48,11.88,43.59,34.91,43.59,20.11,0,26.17-9,30.54-19.05h37.59c-5.7,19.28-22.53,48.88-69.15,48.88-50.29,0-71.69-38.67-71.69-79.09,0-47.79,24.38-83.2,73.29-83.2,52.16,0,69.69,39.06,69.69,75.87a104.75,104.75,0,0,1-.51,13Zm67.5-23.84c-.3-20.56-9.4-37.53-32.19-37.53s-32.35,15.79-34.4,37.53Z"/><path class="cls-3" d="M987.84,936.21c0,49.74-19.09,80.15-75.09,80.15-53.39,0-65.66-29.84-67.59-48.54h38.23c3.52,12.78,13.32,20.62,31,20.62,30.33,0,36.75-18.78,36.75-51v-9.13C943,943.09,929.71,952,905.86,952c-40,0-64.13-32.68-64.13-75.62,0-49.2,29.17-81.57,67.51-81.57,27.6,0,39.18,13,41.92,21.25.3-5.15,1.24-14.86,1.54-17.63h35.54c-.22,12.19-.4,29.68-.4,44.58Zm-107.5-61.54c0,28.71,14.56,46.62,35.7,46.62,28.4,0,36.27-19.33,36.27-48.18,0-29-6.15-47.88-35.37-47.88C894.94,825.23,880.34,842.82,880.34,874.67Z"/><path class="cls-3" d="M1051.1,798.39c19.05,60.47,33,106,36,120.81h.3c3.92-16.29,13.66-51.28,34.46-120.81h37.47L1106,958.8c-15.14,44.86-27.27,57.56-62.67,57.56a183.73,183.73,0,0,1-19-1.11V984.52a108.59,108.59,0,0,0,11.67.69c17.07,0,24.85-6.54,31.79-26.61l-57-160.21Z"/><path class="cls-3" d="M1202.79,754.59h117.74l-3,13.71H1215.35l-16.59,77.86h95.86l-3,13.7h-95.86l-20.13,96.59h-15.54Z"/><path class="cls-3" d="M1341.56,812.11h14.11l-30.6,144.34H1311ZM1356,743.9h14.12l-5.82,28.17h-14.11Z"/><path class="cls-3" d="M1394.63,848.77c2.6-12.69,4.92-24.82,7.22-36.66h13.82c-.58,4.89-4.28,24.88-5.43,28.91,9.18-16,23.86-31.79,51.78-31.79,26.88,0,44.74,15.06,36.07,55l-19.32,92.26h-14.11l19-90.86c5.44-25.48-.29-42.67-26-42.67-32.3,0-50.06,31.64-56.68,63l-15,70.53h-14.11Z"/><path class="cls-3" d="M1544.66,884.48c-.86,7.4-1.43,11.12-1.43,17.12,0,30.26,15.37,44.38,37.76,44.38,24.9,0,36.34-14,44.07-28.05h14.71c-10.34,23.06-27.4,41.41-61.11,41.41-34.45,0-49.83-23.69-49.83-56.08,0-42.34,23-94,73.72-94,36.23,0,47.85,24.85,47.85,48.93a96.46,96.46,0,0,1-3.48,26.32Zm90.52-13a67.8,67.8,0,0,0,1.14-13.13c0-24.27-11.69-36.08-35.21-36.08-24.94,0-44.37,17.75-53.23,49.21Z"/></svg>