<svg id="Calque_1" data-name="Calque 1" xmlns="http://www.w3.org/2000/svg" xmlns:xlink="http://www.w3.org/1999/xlink" viewBox="0 0 65.91 38.98"><defs><style>.cls-1{fill:url(#Dégradé_sans_nom_8);}.cls-2{fill:url(#Dégradé_sans_nom_19);}.cls-3{fill:#fff;}</style><linearGradient id="Dégradé_sans_nom_8" x1="16.04" y1="10.83" x2="66.44" y2="10.83" gradientUnits="userSpaceOnUse"><stop offset="0" stop-color="#0097ff"/><stop offset="0.26" stop-color="blue"/></linearGradient><linearGradient id="Dégradé_sans_nom_19" x1="0.53" y1="30.55" x2="50.93" y2="30.55" gradientUnits="userSpaceOnUse"><stop offset="0.72" stop-color="#00b200"/><stop offset="1" stop-color="lime"/></linearGradient></defs><path class="cls-1" d="M48.08,19.8l-30.18.66L16,20.4c.15-2.71.88-8.71,5.38-13.16C24.68,4,28.15,2.2,34,2l31.8-.84h.66a19.26,19.26,0,0,1-5.8,13.4A19.18,19.18,0,0,1,48.08,19.8Z" transform="translate(-0.53 -1.2)"/><path class="cls-2" d="M32.57,39.52l-30.18.66L.53,40.12c.15-2.71.88-8.71,5.38-13.16,3.26-3.21,6.73-5,12.56-5.2l31.8-.84h.66a18.78,18.78,0,0,1-18.36,18.6Z" transform="translate(-0.53 -1.2)"/><path class="cls-3" d="M24.48,38.74c-.22-.07,1.62-7.09,2-8.27.28-.9.59-1.86.59-1.86s.31-1,.63-1.94c1.33-4,2-6,3-8.37A19.28,19.28,0,0,1,33,13.67a12,12,0,0,1,3.67-3.11l.13-.06a8.91,8.91,0,0,1,3.35-.78c2.48-.13,6.61.31,6.59.52s-.93,0-2.52.06l-.66,0c-.46,0-1,.1-1.73.22-.88.14-1.31.21-1.87.35a10.28,10.28,0,0,0-2.33.85s-.35.19-.69.41a10.5,10.5,0,0,0-3.15,3.91c-2.69,5.82-4.89,11.49-4.89,11.49-1.57,4-1.74,4.3-2.31,5.91l-1.49,3.89C24.61,38.52,24.52,38.75,24.48,38.74Z" transform="translate(-0.53 -1.2)"/></svg>