<svg id="Calque_1" data-name="Calque 1" xmlns="http://www.w3.org/2000/svg" xmlns:xlink="http://www.w3.org/1999/xlink" viewBox="0 0 264.44 41.18"><defs><style>.cls-1{fill:#e5e5ff;}.cls-2{fill:url(#Dégradé_sans_nom_8);}.cls-3{fill:url(#Dégradé_sans_nom_19);}.cls-4{fill:#fff;}</style><linearGradient id="Dégradé_sans_nom_8" x1="16.04" y1="10.83" x2="66.44" y2="10.83" gradientUnits="userSpaceOnUse"><stop offset="0" stop-color="#0097ff"/><stop offset="0.26" stop-color="blue"/></linearGradient><linearGradient id="Dégradé_sans_nom_19" x1="0.53" y1="30.55" x2="50.93" y2="30.55" gradientUnits="userSpaceOnUse"><stop offset="0.72" stop-color="#00b200"/><stop offset="1" stop-color="lime"/></linearGradient></defs><rect class="cls-1" width="264.44" height="41.18"/><path class="cls-2" d="M48.08,19.8l-30.18.66L16,20.4c.15-2.71.88-8.71,5.38-13.16C24.68,4,28.15,2.2,34,2l31.8-.84h.66a19.26,19.26,0,0,1-5.8,13.4A19.18,19.18,0,0,1,48.08,19.8Z"/><path class="cls-3" d="M32.57,39.52l-30.18.66L.53,40.12c.15-2.71.88-8.71,5.38-13.16,3.26-3.21,6.73-5,12.56-5.2l31.8-.84h.66a18.78,18.78,0,0,1-18.36,18.6Z"/><path class="cls-4" d="M24.48,38.74c-.22-.07,1.62-7.09,2-8.27.28-.9.59-1.86.59-1.86s.31-1,.63-1.94c1.33-4,2-6,3-8.37A19.28,19.28,0,0,1,33,13.67a12,12,0,0,1,3.67-3.11l.13-.06a8.91,8.91,0,0,1,3.35-.78c2.48-.13,6.61.31,6.59.52s-.93,0-2.52.06l-.66,0c-.46,0-1,.1-1.73.22-.88.14-1.31.21-1.87.35a10.28,10.28,0,0,0-2.33.85s-.35.19-.69.41a10.5,10.5,0,0,0-3.15,3.91c-2.69,5.82-4.89,11.49-4.89,11.49-1.57,4-1.74,4.3-2.31,5.91l-1.49,3.89C24.61,38.52,24.52,38.75,24.48,38.74Z"/><path d="M78.11,22.42c.59,2.58,2.4,3.81,5.43,3.81S88,24.9,88,23c0-2.11-1.17-3.13-5.53-4.16-6.25-1.49-8-3.72-8-7,0-4,3-6.86,8.55-6.86,6.17,0,8.65,3.4,9,6.79H87.41c-.32-1.7-1.32-3.36-4.56-3.36-2.39,0-3.79,1-3.79,2.93s1.13,2.63,5.14,3.57c7,1.66,8.37,4.28,8.37,7.57,0,4.22-3.17,7.25-9.37,7.25s-9.1-3.11-9.65-7.26Z"/><path d="M94.19,11.46h2.87v-5h4.33v5H105v3.32h-3.65v9.38c0,1.49.42,2.14,1.94,2.14a7.28,7.28,0,0,0,1.27-.09v3.05a10.49,10.49,0,0,1-3.11.33c-3.25,0-4.43-1.72-4.43-4.8v-10H94.19Z"/><path d="M108,16.32c0-2,0-3.55,0-4.86h4.24c.06.44.12,2.09.12,3.31A5.92,5.92,0,0,1,118.19,11v4.18c-3.62,0-5.84,1.26-5.84,6v8.1H108Z"/><path d="M135,25a36.88,36.88,0,0,0,.24,4.38H131.1a8,8,0,0,1-.27-2c-.64,1.07-1.93,2.37-5.2,2.37-4.28,0-6.09-2.81-6.09-5.56,0-4.05,3.23-5.91,8.5-5.91h2.72V17.06c0-1.38-.48-2.85-3.13-2.85-2.39,0-2.86,1.08-3.12,2.41h-4.13c.25-2.94,2.07-5.6,7.41-5.58,4.65,0,7.2,1.87,7.2,6.06Zm-4.22-4h-2.31c-3.19,0-4.56.94-4.56,2.93a2.58,2.58,0,0,0,2.88,2.67c3.54,0,4-2.43,4-5.09Z"/><path d="M137.53,11.46h2.87v-5h4.33v5h3.65v3.32h-3.65v9.38c0,1.49.41,2.14,1.94,2.14a7.35,7.35,0,0,0,1.27-.09v3.05a10.49,10.49,0,0,1-3.11.33c-3.25,0-4.43-1.72-4.43-4.8v-10h-2.87Z"/><path d="M154.49,21.3c0,2.71,1.37,5,4,5,2.32,0,3-1,3.52-2.2h4.34c-.66,2.22-2.6,5.64-8,5.64-5.8,0-8.27-4.46-8.27-9.13,0-5.51,2.81-9.6,8.46-9.6,6,0,8,4.51,8,8.76a11.89,11.89,0,0,1-.06,1.5Zm7.79-2.75c0-2.38-1.09-4.33-3.72-4.33s-3.73,1.82-4,4.33Z"/><path d="M186.3,27.36c0,5.74-2.21,9.25-8.67,9.25-6.16,0-7.57-3.44-7.8-5.6h4.42c.4,1.47,1.53,2.38,3.57,2.38,3.5,0,4.24-2.17,4.24-5.88V26.46c-.93,1.7-2.47,2.72-5.22,2.72-4.61,0-7.4-3.77-7.4-8.73,0-5.67,3.36-9.41,7.79-9.41,3.18,0,4.52,1.5,4.83,2.46,0-.6.15-1.72.18-2h4.1c0,1.41,0,3.43,0,5.14Zm-12.41-7.1c0,3.31,1.68,5.38,4.12,5.38,3.28,0,4.19-2.23,4.19-5.56s-.71-5.52-4.08-5.52C175.58,14.56,173.89,16.59,173.89,20.26Z"/><path d="M193.6,11.46c2.2,7,3.8,12.23,4.15,13.94h0c.46-1.88,1.58-5.92,4-13.94h4.32L199.93,30c-1.75,5.18-3.15,6.64-7.23,6.64a19.61,19.61,0,0,1-2.19-.13V32.94c.38,0,.91.08,1.35.08,2,0,2.87-.76,3.67-3.07L189,11.46Z"/><path d="M211.1,6.4h13.59L224.35,8h-11.8l-1.91,9H221.7l-.34,1.58H210.29L208,29.7h-1.79Z"/><path d="M227.12,13h1.63L225.21,29.7h-1.63Zm1.66-7.87h1.63l-.67,3.25h-1.63Z"/><path d="M233.24,17.27c.3-1.46.57-2.86.83-4.23h1.6c-.07.56-.5,2.87-.63,3.34a6.53,6.53,0,0,1,6-3.67c3.1,0,5.16,1.73,4.16,6.34L243,29.7h-1.63l2.2-10.49c.63-2.94,0-4.92-3-4.92-3.72,0-5.77,3.65-6.54,7.27l-1.73,8.14h-1.63Z"/><path d="M250.55,21.39a15.25,15.25,0,0,0-.16,2c0,3.49,1.77,5.12,4.36,5.12a5.39,5.39,0,0,0,5.08-3.24h1.7c-1.19,2.66-3.16,4.78-7,4.78s-5.76-2.73-5.76-6.47c0-4.89,2.66-10.85,8.51-10.85,4.19,0,5.53,2.86,5.53,5.64a11.22,11.22,0,0,1-.4,3ZM261,19.89a7.7,7.7,0,0,0,.13-1.51c0-2.8-1.35-4.17-4.06-4.17-2.88,0-5.12,2.05-6.15,5.68Z"/></svg>